<svg width="1440" height="1024" viewBox="0 0 1440 1024" fill="none" xmlns="http://www.w3.org/2000/svg">
<rect width="1440" height="1024" fill="#1E1E1E"/>
<g id="certificate">
<rect width="1440" height="1024" fill="white"/>
<g id="whole" clip-path="url(#clip0_0_1)">
<path id="Vector" d="M372.089 496.558C374.19 500.067 377.036 503.073 380.425 505.364C383.814 507.655 387.664 509.175 391.704 509.817C395.744 510.459 399.876 510.208 403.808 509.08C407.74 507.953 411.377 505.977 414.463 503.292L500.72 552.763L497.505 501.191L416.087 462.118C411.233 457.233 404.755 454.298 397.881 453.87C391.007 453.442 384.215 455.55 378.791 459.795C373.368 464.04 369.69 470.127 368.455 476.903C367.219 483.678 368.512 490.672 372.089 496.558Z" fill="#FFB8B8"/>
<path id="Vector_2" d="M621.81 694.739C596.224 730.551 597.139 790.465 604.278 856.038H725.252L730.512 843.765L737.525 856.038H851.486C851.486 856.038 842.72 689.479 826.941 684.219C811.161 678.96 621.81 694.739 621.81 694.739Z" fill="#2F2E41"/>
<path id="Vector_3" d="M725.252 320.582C759.142 320.582 786.616 293.109 786.616 259.218C786.616 225.328 759.142 197.855 725.252 197.855C691.362 197.855 663.888 225.328 663.888 259.218C663.888 293.109 691.362 320.582 725.252 320.582Z" fill="#FFB8B8"/>
<path id="Vector_4" d="M769.604 336.503L781.604 359.503L864.604 396.503L842.786 607.639L833.604 629.503L838.565 648.49L826.604 662.503C838.61 673.367 840.135 684.739 833.604 696.503L795.382 705.258C795.382 705.258 582.861 724.156 600.771 691.232C620.341 655.259 625.324 549.017 582.122 492.244C545.445 444.046 573.604 381.503 573.604 381.503L660.604 355.503L692.604 336.503L769.604 336.503Z" fill="#FFEF63"/>
<path id="Vector_5" d="M752.495 169.33C752.783 168.72 753.248 168.21 753.828 167.866C754.408 167.521 755.078 167.358 755.752 167.397C727.658 165.717 698.067 168.991 674.564 184.473C668.87 188.223 663.502 192.697 657.306 195.418C657.013 195.549 656.76 195.754 656.57 196.012C656.38 196.271 656.26 196.574 656.222 196.892C656.184 197.21 656.229 197.533 656.352 197.829C656.475 198.125 656.673 198.384 656.926 198.581L657.607 199.114C657.875 199.325 658.081 199.605 658.201 199.924C658.322 200.244 658.352 200.59 658.29 200.925C658.227 201.261 658.073 201.573 657.846 201.827C657.618 202.081 657.326 202.268 656.999 202.368C656.659 202.472 656.356 202.67 656.124 202.941C655.893 203.211 655.745 203.542 655.695 203.894C655.646 204.247 655.699 204.606 655.846 204.929C655.994 205.253 656.232 205.527 656.53 205.72L661.746 209.091C662.008 209.257 662.225 209.488 662.376 209.76C662.526 210.032 662.606 210.338 662.608 210.649C662.609 210.96 662.533 211.267 662.385 211.541C662.238 211.814 662.024 212.047 661.763 212.216C661.321 212.489 660.857 212.725 660.376 212.92C660.077 213.032 659.811 213.22 659.605 213.465C659.4 213.709 659.26 214.003 659.201 214.317C659.142 214.632 659.164 214.956 659.267 215.259C659.369 215.562 659.548 215.833 659.786 216.047C662.044 218.058 663.777 220.59 664.832 223.424C666.57 227.944 666.882 232.866 667.176 237.7C668.973 230.725 676.584 226.62 683.774 226.203C690.964 225.785 697.976 228.158 704.973 229.863C720.213 233.567 736.041 234.175 751.521 231.654C746.265 242.203 750.699 254.785 755.16 265.694L769.604 259.503C789.439 248.306 775.622 295.671 768.207 302.173C783.348 307.422 822.979 249.159 810.23 227.059C803.598 215.562 808.306 200.735 795.267 189.831C788.877 183.104 776.118 186.094 769.604 180.503C767.04 178.302 770.948 172.415 767.424 171.132C766.254 170.706 752.689 168.901 752.495 169.33Z" fill="#2F2E41"/>
<path id="Vector_6" d="M648.554 361.443C637.294 411.433 608.414 528.153 579.114 552.563C577.255 554.318 575.027 555.633 572.594 556.413C469.604 581.503 436.604 517.503 436.604 517.503C436.604 517.503 464.204 504.053 464.904 477.763L520.564 495.033L569.084 385.843L576.224 379.183L576.264 379.143L648.554 361.443Z" fill="#FFEF63"/>
<path id="Vector_7" d="M868.145 823.076C871.094 820.241 873.386 816.794 874.858 812.978C876.331 809.161 876.949 805.068 876.669 800.987C876.389 796.906 875.218 792.936 873.237 789.357C871.257 785.777 868.515 782.676 865.207 780.27L894.079 685.117L844.54 699.814L824.718 787.919C821.045 793.746 819.638 800.717 820.762 807.512C821.886 814.307 825.463 820.453 830.816 824.787C836.169 829.12 842.926 831.34 849.806 831.024C856.686 830.709 863.211 827.881 868.145 823.076Z" fill="#FFB8B8"/>
<path id="Vector_8" d="M841.72 391.18L864.604 396.503C864.604 396.503 959.188 580.531 936.396 615.596C913.603 650.661 885.681 766.752 885.681 766.752C885.681 766.752 844.383 758.542 828.604 737.503L857.499 599.817L827.694 484.102L841.72 391.18Z" fill="#FFEF63"/>
<path id="Vector_9" d="M407.58 664.456L408.401 368.067C408.425 362.068 410.827 356.323 415.08 352.093C419.334 347.863 425.092 345.493 431.091 345.503L654.93 346.124C660.929 346.147 666.673 348.549 670.904 352.803C675.134 357.056 677.504 362.814 677.494 368.813L676.672 665.202C676.649 671.201 674.247 676.945 669.993 681.175C665.74 685.405 659.982 687.776 653.983 687.766L430.144 687.145C424.145 687.122 418.4 684.72 414.17 680.466C409.94 676.212 407.57 670.455 407.58 664.456Z" fill="#E6E6E6"/>
<path id="Vector_10" d="M424.998 574.981L425.526 384.436C425.548 378.818 427.797 373.438 431.781 369.476C435.765 365.514 441.157 363.295 446.775 363.304L639.146 363.837C644.764 363.859 650.145 366.109 654.107 370.092C658.068 374.076 660.288 379.469 660.279 385.087L659.548 648.832C659.526 654.451 657.276 659.831 653.292 663.792C649.308 667.754 643.916 669.974 638.297 669.964L519.128 669.634C494.102 669.536 470.137 659.516 452.491 641.772C434.844 624.027 424.957 600.007 424.998 574.981Z" fill="white"/>
<path id="Vector_11" d="M617.104 447.003H467.104C464.717 447.003 462.428 446.055 460.74 444.367C459.052 442.679 458.104 440.39 458.104 438.003C458.104 435.616 459.052 433.327 460.74 431.639C462.428 429.951 464.717 429.003 467.104 429.003H617.104C619.491 429.003 621.78 429.951 623.468 431.639C625.155 433.327 626.104 435.616 626.104 438.003C626.104 440.39 625.155 442.679 623.468 444.367C621.78 446.055 619.491 447.003 617.104 447.003Z" fill="#63D0FF"/>
<path id="Vector_12" d="M500.104 405.503H467.104C464.717 405.503 462.428 404.555 460.74 402.867C459.052 401.179 458.104 398.89 458.104 396.503C458.104 394.116 459.052 391.827 460.74 390.139C462.428 388.451 464.717 387.503 467.104 387.503H500.104C502.491 387.503 504.78 388.451 506.468 390.139C508.155 391.827 509.104 394.116 509.104 396.503C509.104 398.89 508.155 401.179 506.468 402.867C504.78 404.555 502.491 405.503 500.104 405.503Z" fill="#FF6363"/>
<path id="Vector_13" d="M617.104 488.503H467.104C464.717 488.503 462.428 487.555 460.74 485.867C459.052 484.179 458.104 481.89 458.104 479.503C458.104 477.116 459.052 474.827 460.74 473.139C462.428 471.451 464.717 470.503 467.104 470.503H617.104C619.491 470.503 621.78 471.451 623.468 473.139C625.155 474.827 626.104 477.116 626.104 479.503C626.104 481.89 625.155 484.179 623.468 485.867C621.78 487.555 619.491 488.503 617.104 488.503Z" fill="#63D0FF"/>
<path id="Vector_14" d="M617.104 530.003H467.104C464.717 530.003 462.428 529.055 460.74 527.367C459.052 525.679 458.104 523.39 458.104 521.003C458.104 518.616 459.052 516.327 460.74 514.639C462.428 512.951 464.717 512.003 467.104 512.003H617.104C619.491 512.003 621.78 512.951 623.468 514.639C625.155 516.327 626.104 518.616 626.104 521.003C626.104 523.39 625.155 525.679 623.468 527.367C621.78 529.055 619.491 530.003 617.104 530.003Z" fill="#63D0FF"/>
<path id="Vector_15" d="M604.967 639.354C624.744 639.354 640.778 623.321 640.778 603.543C640.778 583.765 624.744 567.732 604.967 567.732C585.189 567.732 569.156 583.765 569.156 603.543C569.156 623.321 585.189 639.354 604.967 639.354Z" fill="#1E1E1E"/>
<path id="Vector_16" d="M600.081 622.181C599.463 622.181 598.853 622.037 598.3 621.76C597.747 621.483 597.266 621.082 596.895 620.587L587.125 607.56C586.81 607.142 586.581 606.665 586.451 606.158C586.32 605.651 586.291 605.124 586.365 604.605C586.439 604.087 586.614 603.588 586.881 603.138C587.147 602.687 587.5 602.294 587.919 601.98C588.338 601.666 588.814 601.437 589.321 601.307C589.829 601.178 590.356 601.149 590.875 601.223C591.393 601.298 591.891 601.474 592.342 601.741C592.792 602.008 593.185 602.361 593.498 602.78L599.89 611.302L616.307 586.678C616.596 586.241 616.969 585.865 617.404 585.573C617.838 585.28 618.327 585.076 618.841 584.972C619.354 584.869 619.884 584.867 620.398 584.969C620.912 585.07 621.402 585.272 621.838 585.563C622.274 585.853 622.648 586.227 622.94 586.663C623.231 587.099 623.433 587.588 623.535 588.102C623.637 588.616 623.637 589.145 623.534 589.659C623.431 590.173 623.228 590.662 622.936 591.097L603.396 620.407C603.043 620.937 602.567 621.374 602.01 621.683C601.452 621.991 600.829 622.161 600.192 622.179C600.155 622.18 600.118 622.181 600.081 622.181Z" fill="#17E945"/>
<g id="Group 1">
<path id="Vector_17" d="M475 784C484.389 784 492 776.389 492 767C492 757.611 484.389 750 475 750C465.611 750 458 757.611 458 767C458 776.389 465.611 784 475 784Z" fill="#F2F2F2"/>
<path id="Vector_18" d="M857.604 342.503C866.992 342.503 874.604 334.892 874.604 325.503C874.604 316.114 866.992 308.503 857.604 308.503C848.215 308.503 840.604 316.114 840.604 325.503C840.604 334.892 848.215 342.503 857.604 342.503Z" fill="#F2F2F2"/>
<path id="Vector_19" d="M559 259C568.389 259 576 251.389 576 242C576 232.611 568.389 225 559 225C549.611 225 542 232.611 542 242C542 251.389 549.611 259 559 259Z" fill="#F2F2F2"/>
</g>
</g>
</g>
<defs>
<clipPath id="clip0_0_1">
<rect width="571.94" height="689.038" fill="white" transform="translate(368 167)"/>
</clipPath>
</defs>
</svg>
