<svg width="1440" height="1024" viewBox="0 0 1440 1024" fill="none" xmlns="http://www.w3.org/2000/svg">
<g id="coding">
<rect width="1440" height="1024" fill="white"/>
<g id="head">
<path id="face" d="M725.666 447.332C764.694 447.332 796.332 415.694 796.332 376.666C796.332 337.638 764.694 306 725.666 306C686.638 306 655 337.638 655 376.666C655 415.694 686.638 447.332 725.666 447.332Z" fill="#FEB8B8"/>
<g id="hair" style="mix-blend-mode:darken">
<path d="M792.077 314.246C781.512 297.09 764.974 284.448 745.647 278.754L736.972 285.085V276.865C732.33 276.154 727.632 275.881 722.94 276.047L715.455 282.82V276.61C704.373 277.987 693.697 281.645 684.099 287.354C674.502 293.063 666.191 300.698 659.692 309.779C643.438 333.211 640.694 365.811 656.681 389.431C661.069 375.944 666.396 363.289 670.785 349.803C674.234 350.273 677.73 350.29 681.184 349.853L686.523 337.395L688.015 349.326C704.564 347.885 729.111 344.719 744.8 341.818L743.274 332.665L752.402 340.271C757.208 339.165 760.062 338.161 759.826 337.394C771.495 356.205 785.775 368.219 797.442 387.03C801.874 360.506 806.974 338.451 792.077 314.246Z" fill="#2F2E41"/>
</g>
<path id="head-rest" d="M804.576 376.648H801.314C801.314 331.918 767.658 295.527 726.288 295.527C684.919 295.527 651.262 331.918 651.262 376.648H648C648 329.973 683.12 292 726.288 292C769.456 292 804.576 329.973 804.576 376.648Z" fill="#FFEF63"/>
<path id="right-mufs" d="M661.325 404.545C649.976 404.908 640.458 395.255 640.065 382.984L639.71 371.875C639.318 359.604 648.2 349.363 659.549 349L661.325 404.545L661.325 404.545Z" fill="#FF6363"/>
<path id="left-mufs" d="M789 349C800.355 349 809.559 358.952 809.559 371.229V382.344C809.559 394.621 800.355 404.574 789 404.574V349Z" fill="#FF6363"/>
</g>
<path id="body" d="M868.157 560.471C865.727 545.852 863.221 530.952 856.426 517.782C851.961 509.156 844.872 500.936 835.317 499.23C833.434 499.062 831.585 498.634 829.82 497.958C827.02 496.609 789.395 475.13 783.415 471.389C778.28 468.178 770.174 462.231 766.087 462.231C761.976 462.141 746.21 465.81 684.674 461C684.674 461 667.769 467.663 654.688 475.743C654.49 475.612 590.819 509.803 588.427 509.713C583.897 509.522 579.686 512.423 577.089 516.075C574.493 519.728 573.275 524.249 572 528.621C585.907 559.591 598.631 590.601 612.539 621.571C613.19 622.737 613.536 624.049 613.545 625.385C613.265 626.772 612.673 628.076 611.814 629.2C604.994 640.156 605.211 653.936 605.956 666.813C606.702 679.69 607.624 693.291 601.869 704.833C600.304 708.002 598.268 710.902 596.78 714.071C593.293 721.248 672.433 666.991 611.814 714.071H835.317C829.831 698.993 868.157 560.471 868.157 560.471Z" fill="#FFEF63"/>
<g id="plant">
<path id="right-leaf" d="M437.238 687.293C427.861 709.749 404.376 721.321 404.376 721.321C404.376 721.321 396.095 696.484 405.472 674.028C414.849 651.572 438.334 640 438.334 640C438.334 640 446.615 664.837 437.238 687.293Z" fill="#56B660"/>
<path id="left-leaf" d="M432.04 681.629C412.53 696.174 407 721.764 407 721.764C407 721.764 433.104 723.773 452.615 709.229C472.125 694.684 477.655 669.094 477.655 669.094C477.655 669.094 451.551 667.085 432.04 681.629Z" fill="#28D343"/>
</g>
<g id="Glass-water">
<path id="cup" d="M1022.72 646.67V654.468C1022.71 655.088 1022.47 655.681 1022.03 656.119C1021.59 656.557 1021 656.804 1020.38 656.808H1016.48C1016.37 656.807 1016.27 656.827 1016.18 656.866C1016.08 656.905 1016 656.963 1015.93 657.035C1015.85 657.108 1015.8 657.194 1015.76 657.289C1015.72 657.383 1015.7 657.485 1015.7 657.587V721.53C1015.69 722.15 1015.45 722.743 1015.01 723.181C1014.57 723.619 1013.98 723.866 1013.36 723.87H965.791C965.171 723.869 964.576 723.623 964.137 723.184C963.699 722.745 963.452 722.151 963.452 721.53V657.587C963.451 657.381 963.369 657.183 963.223 657.037C963.076 656.891 962.878 656.808 962.672 656.808H957.993C957.373 656.807 956.778 656.56 956.34 656.122C955.901 655.683 955.654 655.088 955.654 654.468V646.67C955.653 646.363 955.714 646.059 955.831 645.775C955.948 645.491 956.121 645.232 956.338 645.015C956.555 644.798 956.813 644.626 957.097 644.508C957.381 644.391 957.686 644.33 957.993 644.331H1020.38C1021 644.333 1021.59 644.58 1022.03 645.018C1022.47 645.456 1022.71 646.05 1022.72 646.67Z" fill="#CACACA"/>
<path id="let-steam" d="M991.521 629.513C990.523 621.18 990.26 612.776 990.735 604.397L991.521 590.523C987.19 601.183 988.169 615.213 991.521 629.513Z" fill="#CACACA"/>
<path id="right-steam" d="M984.502 625.614C982.429 611.65 981.882 597.501 982.869 583.419L984.502 560.112C975.502 578.02 977.536 601.59 984.502 625.614V625.614Z" fill="#CACACA"/>
<path id="water" d="M1015.7 692.869C998.215 700.104 980.542 700.183 962.672 692.869V676.388C979.875 670.61 998.495 670.61 1015.7 676.388V692.869Z" fill="#AAAAAA"/>
<path id="glass-edge" d="M1016 684H964V721H1016V684Z" fill="#6F4E37"/>
</g>
<g id="right-hand">
<path id="right-sleve" d="M577.942 521.023C576.703 522.321 575.742 523.858 575.118 525.541C564.833 548.72 558.758 573.546 557.177 598.856C557.205 600.09 556.921 601.312 556.35 602.406C555.788 603.135 555.162 603.812 554.48 604.429C553.885 605.134 553.435 605.95 553.155 606.829C552.876 607.708 552.772 608.633 552.85 609.552C552.928 610.472 553.186 611.366 553.61 612.186C554.034 613.005 554.615 613.733 555.32 614.328C555.435 614.425 555.554 614.519 555.676 614.609C557.775 610.658 562.801 609.367 567.268 609.023C588.657 607.331 609.55 617.282 631.002 616.531C629.489 611.301 627.312 606.275 626.077 600.983C620.619 577.481 634.234 551.894 625.887 529.257C624.219 524.727 621.433 520.274 617.044 518.289C615.226 517.556 613.324 517.052 611.382 516.79C605.961 515.811 595.17 511.624 589.929 513.304C587.995 513.928 587.232 515.747 585.628 516.846C583.192 518.402 579.961 518.974 577.942 521.023Z" fill="#FFEF63"/>
<path id="right-arm" d="M556.001 624.639C555.829 628.353 556.118 632.073 556.861 635.715L565.287 687.677C566.08 692.574 566.866 697.46 567.778 702.334C569.525 711.796 571.696 721.142 574.181 730.445C574.34 731.784 575.024 733.005 576.083 733.84C577.141 734.675 578.488 735.056 579.827 734.899C596.166 736.824 612.715 735.173 628.989 732.752C653.824 729.075 717.447 720.596 720.885 715.171C724.323 709.745 721.299 701.755 715.837 698.122C710.374 694.489 625.182 692.208 625.182 692.208C625.408 685.607 627.33 679.234 629.12 672.822C632.347 661.446 635.262 649.734 634.261 637.955C633.26 626.177 627.693 614.205 617.432 608.344C608.993 603.533 598.686 603.44 589.041 604.553C582.026 605.398 569.72 604.825 563.548 608.163C558.67 610.866 556.495 619.575 556.001 624.639Z" fill="#FBBEBE"/>
</g>
<g id="left-hand">
<path id="left-sleve" d="M855.002 516.846C853.399 515.747 852.636 513.928 850.701 513.304C845.46 511.624 834.669 515.811 829.248 516.79C827.306 517.052 825.404 517.556 823.587 518.289C819.197 520.274 816.411 524.727 814.744 529.257C806.397 551.894 820.012 577.481 814.553 600.983C813.319 606.275 811.142 611.301 809.628 616.531C831.081 617.282 851.974 607.331 873.362 609.023C877.829 609.366 882.855 610.658 884.954 614.609C885.076 614.519 885.195 614.425 885.311 614.328C886.016 613.733 886.597 613.005 887.021 612.186C887.444 611.366 887.703 610.472 887.781 609.552C887.859 608.633 887.755 607.708 887.475 606.829C887.195 605.95 886.745 605.134 886.151 604.429C885.468 603.812 884.842 603.135 884.28 602.406C883.71 601.312 883.425 600.09 883.453 598.856C881.873 573.546 875.798 548.72 865.513 525.54C864.889 523.858 863.928 522.321 862.688 521.023C860.669 518.974 857.438 518.402 855.002 516.846Z" fill="#FFEF63"/>
<path id="left-arm" d="M875.912 605.602C869.462 602.84 857.259 604.532 850.197 604.329C840.49 604.1 830.234 605.132 822.269 610.691C812.585 617.464 808.132 629.892 808.208 641.713C808.284 653.534 812.254 664.932 816.505 675.966C818.871 682.188 821.365 688.36 822.192 694.913C822.192 694.913 737.562 704.946 732.454 709.062C727.345 713.177 725.062 721.41 728.98 726.5C732.898 731.59 855.153 736.7 871.249 733.294C872.597 733.328 873.903 732.826 874.881 731.898C875.859 730.97 876.429 729.692 876.465 728.344C878.092 718.853 879.402 709.348 880.28 699.767C880.744 694.83 881.082 689.892 881.426 684.943L885.082 632.43C885.49 628.735 885.439 625.004 884.929 621.322C883.976 616.323 881.017 607.85 875.912 605.602Z" fill="#FBBEBE"/>
</g>
<g id="Computer">
<path id="table" d="M1159.63 720.98H281V747.98H332.97V754.256H1107.68V747.98H1159.63V720.98Z" fill="#E9A76B"/>
<path id="Display" d="M856.57 724.044H594.539C591.48 724.04 588.547 722.824 586.384 720.661C584.221 718.497 583.004 715.565 583 712.505V553.539C583.004 550.479 584.221 547.547 586.384 545.383C588.547 543.22 591.48 542.003 594.539 542H856.57C859.629 542.003 862.562 543.22 864.726 545.383C866.889 547.547 868.106 550.479 868.109 553.539V712.505C868.106 715.565 866.889 718.497 864.726 720.661C862.562 722.824 859.629 724.04 856.57 724.044Z" fill="#3F3D56"/>
</g>
<path id="Vector" d="M590.698 552.619C590.69 553.328 591.586 553.891 592.64 553.844C593.703 553.868 594.583 553.306 594.591 552.602C594.6 551.894 593.703 551.337 592.64 551.377C591.586 551.354 590.707 551.916 590.698 552.619ZM590.698 562.387C590.69 563.09 591.586 563.658 592.64 563.605C593.703 563.629 594.583 563.072 594.591 562.363C594.6 561.66 593.703 561.097 592.64 561.145C591.586 561.121 590.707 561.678 590.698 562.387ZM590.575 572.899C590.558 573.28 590.813 573.642 591.268 573.877C591.751 574.106 592.34 574.199 592.921 574.135L591.549 571.92C590.96 572.084 590.573 572.471 590.573 572.899H590.575ZM583 583H601V547H583V583ZM596.113 575.488V579.66H587.114V578.371H594.365V575.487L596.113 575.488ZM594.714 572.764C594.723 572.278 594.468 571.803 593.975 571.439L594.898 570.636C595.75 571.21 596.225 571.978 596.225 572.786C596.427 574.163 594.836 575.37 592.762 575.411C590.68 575.451 588.992 574.309 589.07 572.92C589.017 572.235 589.431 571.567 590.195 571.097C590.749 570.793 591.417 570.599 592.129 570.541L594.159 573.786C594.537 573.511 594.74 573.142 594.713 572.761L594.714 572.764ZM596.113 565.44V566.711H592.166C591.322 566.729 590.663 567.21 590.707 567.778C590.654 568.34 591.322 568.821 592.166 568.826H596.113V570.092H589.179V568.82H590.173C589.48 568.463 589.075 567.906 589.066 567.321C588.979 566.278 590.253 565.411 591.817 565.445L596.113 565.44ZM596.226 562.463C596.095 564.567 592.246 565.539 590.057 564.016C587.877 562.498 589.485 559.972 592.64 559.972C594.679 559.978 596.306 561.109 596.226 562.463ZM596.103 558.268L589.178 560.167V558.72L593.906 557.572L589.178 556.423V554.976L596.103 556.881V558.268ZM596.226 552.701C596.095 554.8 592.246 555.772 590.057 554.254C587.877 552.731 589.485 550.211 592.64 550.211C594.679 550.216 596.306 551.341 596.226 552.701ZM595.286 549.701V549.913H596.113V550.035H595.286V550.24H595.111V549.701H595.286ZM596.113 548.887V549.009H595.401L595.884 549.214V549.232L595.401 549.437H596.113V549.559H595.111V549.424L595.585 549.225L595.111 549.026V548.891L596.113 548.887Z" fill="#C0C0C0" fill-opacity="0.86"/>
<g id="svgviewer-output 1">
<g id="Group">
<path id="Vector_2" fill-rule="evenodd" clip-rule="evenodd" d="M1091.29 672.23C1092.01 674.898 1094.85 676.454 1097.64 675.706C1100.43 674.958 1107.71 667.83 1107.71 667.83C1107.71 667.83 1097.84 665.299 1095.05 666.047C1092.26 666.795 1090.58 669.563 1091.29 672.23Z" fill="#80D25B"/>
<path id="Vector_3" fill-rule="evenodd" clip-rule="evenodd" d="M1077.45 672.229C1076.74 674.897 1073.9 676.453 1071.11 675.705C1068.32 674.958 1061.03 667.83 1061.03 667.83C1061.03 667.83 1070.9 665.298 1073.69 666.046C1076.48 666.794 1078.17 669.562 1077.45 672.229Z" fill="#80D25B"/>
<path id="Vector_4" d="M1096 671C1089.37 671 1084 676.373 1084 683" stroke="#22BA8E" stroke-width="2" stroke-linecap="round"/>
<path id="Vector_5" d="M1071.74 671C1078.36 671 1083.74 676.373 1083.74 683" stroke="#22BA8E" stroke-width="2" stroke-linecap="round"/>
<path id="Vector_6" fill-rule="evenodd" clip-rule="evenodd" d="M1083.55 683.186C1080.98 680.247 1077.21 678.39 1073 678.39C1065.27 678.39 1059 684.657 1059 692.389C1059 700.12 1067.65 721.403 1075.38 721.403C1077.11 721.403 1081.15 720.435 1083.55 718.739C1085.94 720.435 1089.99 721.403 1091.71 721.403C1099.45 721.403 1108.1 700.12 1108.1 692.389C1108.1 684.657 1101.83 678.39 1094.1 678.39C1089.89 678.39 1086.11 680.247 1083.55 683.186Z" fill="#E43535"/>
<path id="Vector_7" d="M1073 683C1067.48 683 1063 687.477 1063 693" stroke="#FF78C7" stroke-width="2" stroke-linecap="round"/>
</g>
</g>
</g>
</svg>
