<svg width="1448" height="1032" viewBox="0 0 1448 1032" fill="none" xmlns="http://www.w3.org/2000/svg">
<g id="Desktop - 1" filter="url(#filter0_d_1_2)">
<rect width="1440" height="1024" transform="translate(4)" fill="white"/>
<path id="right-plant" d="M1046.46 844.985V772.645C1046.46 772.645 1074.65 823.931 1046.46 844.985Z" fill="#EA974A"/>
<g id="plant">
<path id="left-plant" d="M1046.29 841.921L993 793C993 793 1049.85 806.916 1046.29 841.921Z" fill="#3CEC38"/>
</g>
<path id="left-ankle" d="M923.258 831.281L910.998 831.28L905.166 783.992L923.26 783.993L923.258 831.281Z" fill="#9F616A"/>
<path id="left-shoe" d="M926.384 843.165L886.854 843.163V842.663C886.854 838.583 888.475 834.669 891.361 831.784C894.246 828.899 898.16 827.277 902.24 827.277L926.385 827.278L926.384 843.165Z" fill="#FF6B00"/>
<path id="right-ankle" d="M830.121 830.877L818.277 827.71L824.857 780.52L842.337 785.194L830.121 830.877Z" fill="#9F616A"/>
<path id="right-shoe" d="M830.072 843.165L791.883 832.953L792.012 832.47C793.066 828.528 795.643 825.166 799.176 823.124C802.709 821.082 806.908 820.526 810.851 821.58L834.176 827.817L830.072 843.165Z" fill="#F6E01D"/>
<path id="legs" d="M930.311 566.269L940.58 578.199L927.299 820.642H898.931L884.628 634.091L840.282 825.645L810.79 818.412L837.606 575.113L930.311 566.269Z" fill="#2F2E41"/>
<path id="chest-stomach" d="M844.462 409.744L872.708 395.577L916.145 396.34L953.524 415.468L932.257 521.681L941.444 577.061C905.936 586.116 868.761 586.422 833.109 577.952L832.825 577.885C832.825 577.885 853.938 502.968 844.95 480.106L844.462 409.744Z" fill="#E82929"/>
<path id="face" d="M926.177 353.136C926.146 344.659 922.752 336.54 916.742 330.563C910.731 324.585 902.593 321.236 894.116 321.252C885.639 321.268 877.514 324.646 871.525 330.646C865.536 336.646 862.173 344.777 862.173 353.254C862.173 361.732 865.536 369.863 871.525 375.863C877.514 381.863 885.639 385.241 894.116 385.257C902.593 385.272 910.731 381.924 916.742 375.946C922.752 369.969 926.146 361.85 926.177 353.373C926.178 353.294 926.178 353.215 926.177 353.136Z" fill="#FEB8B8"/>
<path id="hair" d="M879.845 334.85C881.502 333.29 883.685 332.409 885.962 332.382C889.381 332.271 894.504 333.485 896.684 336.265C898.436 338.499 898.52 341.572 898.527 344.411L898.545 352.247C898.551 354.565 898.579 356.983 899.632 359.048C900.685 361.113 903.103 362.682 905.312 361.978C907.932 361.142 909.084 357.66 911.762 357.034C913.773 356.564 915.838 358.033 916.717 359.902C917.46 361.839 917.706 363.931 917.433 365.988C917.18 370.091 911.295 371.719 910.462 375.744C909.98 378.073 908.293 382.718 910.462 381.744C920.462 380.744 924.851 374.903 929.428 369.405L939.751 357.004C940.93 355.773 941.835 354.307 942.409 352.701C942.665 351.577 942.757 350.422 942.682 349.271C942.626 346.189 942.542 343.107 942.431 340.026C942.334 337.335 941.657 333.939 939.021 333.386C937.65 333.098 935.835 333.6 935.111 332.401C934.839 331.8 934.795 331.121 934.986 330.49C935.568 327.414 936.55 324.196 935.538 321.233C934.011 316.765 928.753 314.932 924.107 314.089C919.461 313.246 914.245 312.521 911.329 308.807C910.549 307.574 909.702 306.384 908.793 305.242C907.455 304.026 905.812 303.197 904.038 302.844C898.271 301.384 892.179 301.925 886.758 304.377C884.511 305.403 882.253 306.784 879.788 306.628C877.227 306.465 875.04 304.663 872.511 304.225C868.428 303.516 864.524 306.576 862.511 310.199C860.018 314.689 859.789 320.837 863.312 324.574C865.069 326.438 867.691 327.719 868.421 330.175C868.718 331.175 868.649 332.252 868.912 333.261C869.218 334.265 869.802 335.163 870.596 335.85C871.39 336.537 872.362 336.986 873.4 337.144C875.897 337.551 878.01 336.407 879.845 334.85Z" fill="#2F2E41"/>
<path id="left-wrist" d="M840.563 487.185C841.171 488.746 842.114 490.155 843.326 491.313C844.537 492.471 845.988 493.349 847.575 493.885C849.162 494.422 850.848 494.604 852.514 494.418C854.179 494.233 855.783 493.684 857.214 492.812L914.567 523.13L916.424 509.158L860.695 476.296C859.069 473.99 856.655 472.36 853.908 471.715C851.162 471.071 848.274 471.456 845.793 472.798C843.311 474.141 841.408 476.346 840.444 478.998C839.481 481.649 839.523 484.562 840.563 487.185Z" fill="#FEB8B8"/>
<path id="right-wrist" d="M916.992 489.6C916.058 490.991 914.829 492.16 913.394 493.024C911.958 493.889 910.351 494.428 908.685 494.605C907.018 494.781 905.334 494.589 903.749 494.044C902.165 493.499 900.719 492.612 899.514 491.448L836.917 508.483L837.462 490.744L899.731 474.571C901.822 472.676 904.535 471.614 907.356 471.586C910.177 471.558 912.91 472.566 915.038 474.419C917.165 476.271 918.539 478.84 918.9 481.638C919.26 484.436 918.581 487.269 916.992 489.6Z" fill="#FEB8B8"/>
<path id="left-arm" d="M941.319 416.232L953.524 415.468C953.524 415.468 967.814 434.323 959.888 454.783C959.888 454.783 961.261 528.282 929.612 525.263C897.962 522.244 887.962 522.244 887.962 522.244L897.462 495.744L918.715 489.182C918.715 489.182 912.165 460.288 924.563 448.266L941.319 416.232Z" fill="#E82929"/>
<path id="right-arm" d="M853.187 415.587L851.462 406.744C851.462 406.744 826.022 406.146 820.992 444.695C820.992 444.695 798.115 502.388 820.539 509.816C842.962 517.244 867.627 509.816 867.627 509.816L865.769 484.374L841.097 479.339C841.097 479.339 853.842 462.849 846.902 448.547L853.187 415.587Z" fill="#E82929"/>
<path id="land" d="M1341.87 843H148.133C147.302 843 146.505 842.895 145.918 842.707C145.33 842.52 145 842.265 145 842C145 841.735 145.33 841.48 145.918 841.293C146.505 841.105 147.302 841 148.133 841H1341.87C1342.7 841 1343.49 841.105 1344.08 841.293C1344.67 841.48 1345 841.735 1345 842C1345 842.265 1344.67 842.52 1344.08 842.707C1343.49 842.895 1342.7 843 1341.87 843Z" fill="#CBCBCB"/>
<g id="download">
<path id="cloud" d="M474.182 310.8C484.921 310.8 493.659 320.228 493.659 331.81C493.659 332.612 493.59 333.521 493.448 334.666L492.274 344.07C492.028 346.029 493.334 347.905 495.283 347.923L504.688 347.982C510.149 348.017 514.6 352.908 514.6 358.885C514.6 364.903 510.126 369.8 504.625 369.8H435.752C428.941 369.8 423.4 363.77 423.4 356.36C423.4 350.973 426.359 346.123 430.942 343.999L434.652 342.282C435.963 341.675 437.548 339.739 437.593 337.71L437.685 333.497C437.753 330.341 440.084 327.774 442.872 327.774C443.054 327.774 443.407 327.81 444.052 327.981L449.974 329.538C451.484 329.934 453.428 329.149 454.135 327.715L457.002 321.927C460.411 315.066 466.994 310.8 474.182 310.8ZM474.182 299C462.32 299 452.032 306.121 446.862 316.547C445.561 316.187 444.223 315.996 442.877 315.98C433.831 315.98 426.501 323.674 426.29 333.232C422.007 335.25 418.379 338.507 415.844 342.61C413.308 346.714 411.973 351.489 412 356.36C412 370.302 422.631 381.6 435.752 381.6H504.625C516.43 381.6 526 371.428 526 358.885C526 346.389 516.499 336.259 504.751 336.182C504.928 334.748 505.053 333.297 505.053 331.81C505.059 313.691 491.236 299 474.182 299Z" fill="#4AA9D1"/>
<path id="down-arrow" d="M493.536 437.085L472.536 458.715C472.079 459.175 471.533 459.538 470.931 459.78C470.33 460.023 469.685 460.14 469.036 460.125H468.966C468.316 460.139 467.67 460.022 467.067 459.779C466.464 459.537 465.916 459.175 465.456 458.715L444.466 437.085C444.397 437.005 444.317 436.935 444.246 436.865C443.409 435.966 442.961 434.772 443.003 433.544C443.044 432.317 443.57 431.155 444.466 430.315C445.425 429.414 446.691 428.912 448.006 428.912C449.322 428.912 450.588 429.414 451.547 430.315L463.986 443.315V409.795C464.044 408.504 464.598 407.285 465.532 406.392C466.466 405.498 467.709 405 469.001 405C470.294 405 471.536 405.498 472.471 406.392C473.405 407.285 473.958 408.504 474.016 409.795V443.315L486.446 430.315C487.407 429.414 488.674 428.912 489.991 428.912C491.308 428.912 492.576 429.414 493.536 430.315C493.607 430.385 493.676 430.455 493.756 430.535C494.592 431.435 495.038 432.628 494.996 433.855C494.955 435.082 494.43 436.243 493.536 437.085Z" fill="#2F2E41"/>
</g>
<g id="Group 1">
<path id="crow2" d="M1194.96 283.429C1194.67 282.315 1194.47 281.411 1194.02 280.374C1193.59 279.384 1193.24 278.343 1192.72 277.405C1192.32 276.703 1192.05 275.905 1191.72 275.15C1191.54 274.744 1191.38 274.325 1190.98 274.153C1190.63 274.002 1190.28 273.85 1189.93 273.697C1189.76 273.606 1189.59 273.53 1189.41 273.471C1189.28 273.413 1189.15 273.356 1189.02 273.299C1188.32 272.992 1187.65 272.62 1187.04 272.107C1186.64 271.781 1186.28 271.413 1185.9 271.066C1185.74 270.918 1185.67 270.752 1185.74 270.497C1185.79 270.318 1185.78 270.113 1185.79 269.92C1185.82 269.693 1185.83 269.462 1185.87 269.241C1185.89 269.15 1185.98 269.056 1186.05 269.011C1186.23 268.901 1186.43 268.828 1186.62 268.723C1186.92 268.55 1187.05 268.569 1187.31 268.833C1187.37 268.889 1187.47 268.962 1187.52 268.937C1187.71 268.837 1187.75 268.617 1187.75 268.387C1187.75 268.377 1187.75 268.367 1187.75 268.357C1187.76 268.242 1187.73 268.123 1187.66 268.037L1187.54 267.895C1187.49 267.831 1187.42 267.794 1187.35 267.784C1187.29 267.759 1187.24 267.735 1187.18 267.729C1187.14 267.725 1187.1 267.719 1187.07 267.713L1187.01 267.684C1186.97 267.666 1186.93 267.661 1186.89 267.666C1186.88 267.663 1186.87 267.66 1186.86 267.657C1186.84 267.642 1186.81 267.63 1186.79 267.622C1186.65 267.55 1186.54 267.432 1186.46 267.234C1186.41 267.116 1186.32 266.994 1186.22 266.946C1185.69 266.693 1185.16 266.681 1184.67 267.038C1184.41 267.223 1184.19 267.479 1183.97 267.717C1183.55 268.154 1183.12 268.239 1182.75 267.902C1182.44 267.622 1182.11 267.345 1181.86 266.995C1181.46 266.433 1181.07 265.845 1180.76 265.207C1180.26 264.17 1179.84 263.083 1179.38 262.019C1179.32 261.897 1179.26 261.757 1179.17 261.685C1178.73 261.333 1178.3 260.962 1177.83 260.672C1177.17 260.258 1176.45 259.956 1175.8 259.519C1175.08 259.035 1174.29 258.789 1173.52 258.49C1173.03 258.302 1172.52 258.211 1172.04 257.994C1171.4 257.705 1170.8 257.335 1170.18 257H1170C1170.03 257.069 1170.05 257.14 1170.09 257.205C1170.18 257.374 1170.27 257.537 1170.36 257.709C1170.42 257.827 1170.46 257.959 1170.52 258.079C1170.55 258.148 1170.61 258.199 1170.65 258.267C1170.85 258.66 1171.04 259.071 1171.39 259.323C1171.43 259.35 1171.44 259.423 1171.48 259.463C1171.68 259.712 1171.89 259.956 1172.09 260.205C1172.18 260.307 1172.24 260.443 1172.34 260.517C1172.58 260.703 1172.84 260.867 1173.1 261.029C1173.18 261.086 1173.37 261.095 1173.37 261.151C1173.41 261.451 1173.66 261.419 1173.78 261.471C1174.16 261.637 1174.48 261.964 1174.92 262.001C1175.21 262.026 1175.49 262.198 1175.77 262.318C1175.86 262.358 1175.94 262.438 1176.03 262.509C1176.24 262.699 1176.45 262.93 1176.68 263.076C1176.87 263.19 1176.94 263.358 1177.01 263.559C1177.07 263.733 1177.13 263.907 1177.19 264.08C1177.22 264.15 1177.25 264.218 1177.27 264.288C1177.31 264.412 1177.34 264.546 1177.4 264.659C1177.47 264.792 1177.57 264.897 1177.63 265.034C1177.79 265.394 1177.91 265.77 1178.07 266.13C1178.09 266.175 1178.11 266.22 1178.13 266.265C1178.19 266.507 1178.29 266.726 1178.43 266.907C1178.47 266.978 1178.5 267.05 1178.54 267.121C1178.63 267.333 1178.68 267.612 1178.82 267.757C1179.09 268.03 1179.06 268.523 1179.4 268.738C1179.51 268.803 1179.51 269.072 1179.58 269.238C1179.61 269.312 1179.69 269.362 1179.74 269.423C1179.76 269.505 1179.8 269.573 1179.83 269.645C1179.91 269.801 1179.99 269.954 1180.05 270.118C1180.1 270.248 1180.11 270.399 1180.16 270.529C1180.22 270.681 1180.17 271.236 1180.09 271.379C1179.89 271.771 1179.66 272.154 1179.5 272.576C1179.09 273.695 1178.57 274.678 1177.57 275.157C1177.51 275.183 1177.45 275.304 1177.46 275.369C1177.49 275.619 1177.55 275.863 1177.6 276.112C1177.36 276.278 1177.14 276.439 1176.92 276.598C1177.16 277.204 1177.16 277.204 1177.41 277.056C1177.53 277.204 1177.64 277.338 1177.77 277.5C1177.93 277.386 1178.13 277.297 1178.27 277.143C1178.29 277.122 1178.31 277.103 1178.33 277.085C1178.43 277.033 1178.52 276.975 1178.62 276.911C1178.76 276.859 1178.91 276.842 1179.06 276.83C1179.29 276.814 1179.49 276.751 1179.58 276.453C1179.72 276.035 1179.96 275.714 1180.33 275.567C1180.73 275.408 1181.12 275.24 1181.53 275.119C1182.02 274.971 1182.49 274.774 1182.87 274.368C1183.06 274.166 1183.26 274.204 1183.45 274.272C1184.07 274.501 1184.67 274.771 1185.29 275.013C1185.63 275.149 1185.98 275.25 1186.33 275.383C1186.75 275.546 1187.17 275.729 1187.59 275.897C1187.71 275.946 1187.84 275.96 1187.96 276.012C1188.14 276.089 1188.31 276.222 1188.49 276.266C1188.94 276.376 1189.38 276.543 1189.79 276.799C1189.95 276.901 1190.1 277.088 1190.19 277.278C1190.41 277.711 1190.6 278.169 1190.8 278.62C1190.99 279.062 1191.17 279.511 1191.36 279.95C1191.42 280.076 1191.51 280.179 1191.6 280.286C1191.68 280.39 1191.77 280.483 1191.85 280.584C1191.98 280.731 1192.1 280.883 1192.22 281.029C1192.26 281.077 1192.34 281.101 1192.36 281.156C1192.47 281.428 1192.6 281.641 1192.86 281.737C1192.96 281.775 1193.04 281.921 1193.12 282.024C1193.19 282.12 1193.25 282.239 1193.33 282.322C1193.63 282.619 1193.94 282.905 1194.24 283.186C1194.24 283.198 1194.24 283.152 1194.25 283.085C1194.38 283.399 1194.36 283.05 1194.42 283.036C1194.48 283.35 1194.61 283.594 1194.86 283.705C1195.04 283.754 1194.99 283.599 1195 283.492C1194.98 283.472 1194.97 283.452 1194.96 283.429Z" fill="black"/>
<path id="crow1" d="M1118.96 256.429C1118.67 255.315 1118.47 254.411 1118.02 253.374C1117.59 252.384 1117.24 251.343 1116.72 250.405C1116.32 249.703 1116.05 248.905 1115.72 248.15C1115.54 247.744 1115.38 247.325 1114.98 247.153C1114.63 247.002 1114.28 246.85 1113.93 246.697C1113.76 246.606 1113.59 246.53 1113.41 246.471C1113.28 246.413 1113.15 246.356 1113.02 246.299C1112.32 245.992 1111.65 245.62 1111.04 245.107C1110.64 244.781 1110.28 244.413 1109.9 244.066C1109.74 243.918 1109.67 243.752 1109.74 243.497C1109.79 243.318 1109.78 243.113 1109.79 242.92C1109.82 242.693 1109.83 242.462 1109.87 242.241C1109.89 242.15 1109.98 242.056 1110.05 242.011C1110.23 241.901 1110.43 241.828 1110.62 241.723C1110.92 241.55 1111.05 241.569 1111.31 241.833C1111.37 241.889 1111.47 241.962 1111.52 241.937C1111.71 241.837 1111.75 241.617 1111.75 241.387C1111.75 241.377 1111.75 241.367 1111.75 241.357C1111.76 241.242 1111.73 241.123 1111.66 241.037L1111.54 240.895C1111.49 240.831 1111.42 240.794 1111.35 240.784C1111.29 240.759 1111.24 240.735 1111.18 240.729C1111.14 240.725 1111.1 240.719 1111.07 240.713L1111.01 240.684C1110.97 240.666 1110.93 240.661 1110.89 240.666C1110.88 240.663 1110.87 240.66 1110.86 240.657C1110.84 240.642 1110.81 240.63 1110.79 240.622C1110.65 240.55 1110.54 240.432 1110.46 240.234C1110.41 240.116 1110.32 239.994 1110.22 239.946C1109.69 239.693 1109.16 239.681 1108.67 240.038C1108.41 240.223 1108.19 240.479 1107.97 240.717C1107.55 241.154 1107.12 241.239 1106.75 240.902C1106.44 240.622 1106.11 240.345 1105.86 239.995C1105.46 239.433 1105.07 238.845 1104.76 238.207C1104.26 237.17 1103.84 236.083 1103.38 235.019C1103.32 234.897 1103.26 234.757 1103.17 234.685C1102.73 234.333 1102.3 233.962 1101.83 233.672C1101.17 233.258 1100.45 232.956 1099.8 232.519C1099.08 232.035 1098.29 231.789 1097.52 231.49C1097.03 231.302 1096.52 231.211 1096.04 230.994C1095.4 230.705 1094.8 230.335 1094.18 230H1094C1094.03 230.069 1094.05 230.14 1094.09 230.205C1094.18 230.374 1094.27 230.537 1094.36 230.709C1094.42 230.827 1094.46 230.959 1094.52 231.079C1094.55 231.148 1094.61 231.199 1094.65 231.267C1094.85 231.66 1095.04 232.071 1095.39 232.323C1095.43 232.35 1095.44 232.423 1095.48 232.463C1095.68 232.712 1095.89 232.956 1096.09 233.205C1096.18 233.307 1096.24 233.443 1096.34 233.517C1096.58 233.703 1096.84 233.867 1097.1 234.029C1097.18 234.086 1097.37 234.095 1097.37 234.151C1097.41 234.451 1097.66 234.419 1097.78 234.471C1098.16 234.637 1098.48 234.964 1098.92 235.001C1099.21 235.026 1099.49 235.198 1099.77 235.318C1099.86 235.358 1099.94 235.438 1100.03 235.509C1100.24 235.699 1100.45 235.93 1100.68 236.076C1100.87 236.19 1100.94 236.358 1101.01 236.559C1101.07 236.733 1101.13 236.907 1101.19 237.08C1101.22 237.15 1101.25 237.218 1101.27 237.288C1101.31 237.412 1101.34 237.546 1101.4 237.659C1101.47 237.792 1101.57 237.897 1101.63 238.034C1101.79 238.394 1101.91 238.77 1102.07 239.13C1102.09 239.175 1102.11 239.22 1102.13 239.265C1102.19 239.507 1102.29 239.726 1102.43 239.907C1102.47 239.978 1102.5 240.05 1102.54 240.121C1102.63 240.333 1102.68 240.612 1102.82 240.757C1103.09 241.03 1103.06 241.523 1103.4 241.738C1103.51 241.803 1103.51 242.072 1103.58 242.238C1103.61 242.312 1103.69 242.362 1103.74 242.423C1103.76 242.505 1103.8 242.573 1103.83 242.645C1103.91 242.801 1103.99 242.954 1104.05 243.118C1104.1 243.248 1104.11 243.399 1104.16 243.529C1104.22 243.681 1104.17 244.236 1104.09 244.379C1103.89 244.771 1103.66 245.154 1103.5 245.576C1103.09 246.695 1102.57 247.678 1101.57 248.157C1101.51 248.183 1101.45 248.304 1101.46 248.369C1101.49 248.619 1101.55 248.863 1101.6 249.112C1101.36 249.278 1101.14 249.439 1100.92 249.598C1101.16 250.204 1101.16 250.204 1101.41 250.056C1101.53 250.204 1101.64 250.338 1101.77 250.5C1101.93 250.386 1102.13 250.297 1102.27 250.143C1102.29 250.122 1102.31 250.103 1102.33 250.085C1102.43 250.033 1102.52 249.975 1102.62 249.911C1102.76 249.859 1102.91 249.842 1103.06 249.83C1103.29 249.814 1103.49 249.751 1103.58 249.453C1103.72 249.035 1103.96 248.714 1104.33 248.567C1104.73 248.408 1105.12 248.24 1105.53 248.119C1106.02 247.971 1106.49 247.774 1106.87 247.368C1107.06 247.166 1107.26 247.204 1107.45 247.272C1108.07 247.501 1108.67 247.771 1109.29 248.013C1109.63 248.149 1109.98 248.25 1110.33 248.383C1110.75 248.546 1111.17 248.729 1111.59 248.897C1111.71 248.946 1111.84 248.96 1111.96 249.012C1112.14 249.089 1112.31 249.222 1112.49 249.266C1112.94 249.376 1113.38 249.543 1113.79 249.799C1113.95 249.901 1114.1 250.088 1114.19 250.278C1114.41 250.711 1114.6 251.169 1114.8 251.62C1114.99 252.062 1115.17 252.511 1115.36 252.95C1115.42 253.076 1115.51 253.179 1115.6 253.286C1115.68 253.39 1115.77 253.483 1115.85 253.584C1115.98 253.731 1116.1 253.883 1116.22 254.029C1116.26 254.077 1116.34 254.101 1116.36 254.156C1116.47 254.428 1116.6 254.641 1116.86 254.737C1116.96 254.775 1117.04 254.921 1117.12 255.024C1117.19 255.12 1117.25 255.239 1117.33 255.322C1117.63 255.619 1117.94 255.905 1118.24 256.186C1118.24 256.198 1118.24 256.152 1118.25 256.085C1118.38 256.399 1118.36 256.05 1118.42 256.036C1118.48 256.35 1118.61 256.594 1118.86 256.705C1119.04 256.754 1118.99 256.599 1119 256.492C1118.98 256.472 1118.97 256.452 1118.96 256.429Z" fill="black"/>
</g>
</g>
<defs>
<filter id="filter0_d_1_2" x="0" y="0" width="1448" height="1032" filterUnits="userSpaceOnUse" color-interpolation-filters="sRGB">
<feFlood flood-opacity="0" result="BackgroundImageFix"/>
<feColorMatrix in="SourceAlpha" type="matrix" values="0 0 0 0 0 0 0 0 0 0 0 0 0 0 0 0 0 0 127 0" result="hardAlpha"/>
<feOffset dy="4"/>
<feGaussianBlur stdDeviation="2"/>
<feComposite in2="hardAlpha" operator="out"/>
<feColorMatrix type="matrix" values="0 0 0 0 0 0 0 0 0 0 0 0 0 0 0 0 0 0 0.25 0"/>
<feBlend mode="normal" in2="BackgroundImageFix" result="effect1_dropShadow_1_2"/>
<feBlend mode="normal" in="SourceGraphic" in2="effect1_dropShadow_1_2" result="shape"/>
</filter>
</defs>
</svg>
