<svg width="142" height="143" viewBox="0 0 142 143" fill="none" xmlns="http://www.w3.org/2000/svg">
<g id="rocket 1" clip-path="url(#clip0_1_23)">
<g id="color">
<g id="totalfire">
<path id="fire" d="M62.227 102.627C62.067 108.834 64.7637 114.692 69.3957 118.2C74.2024 114.937 77.2015 109.23 77.3695 103.027C77.5295 96.8208 74.8328 90.9625 70.2008 87.4538C65.3942 90.7172 62.395 96.4243 62.227 102.627Z" fill="#FCEA2B"/>
<path id="fire2" d="M76.4756 96.6246C76.5327 98.4522 76.3363 100.291 75.893 102.08C74.4992 107.656 70.817 112.319 65.9422 114.68C66.9349 116.029 68.0974 117.214 69.3949 118.2C74.2015 114.937 77.2007 109.23 77.3687 103.027C77.4184 100.849 77.1158 98.6815 76.4756 96.6246Z" fill="#F1B31C"/>
<path id="Vector" d="M63.8798 95.2201C62.8655 97.5375 62.3024 100.061 62.2267 102.627C62.0668 108.833 64.7628 114.691 69.3942 118.2C74.2007 114.936 77.1997 109.229 77.3681 103.027C77.4303 100.459 77.0035 97.9095 76.1148 95.541" stroke="black" stroke-width="1.949" stroke-miterlimit="10" stroke-linecap="round" stroke-linejoin="round"/>
</g>
<path id="Vector_2" d="M76.03 85.184C76.7598 86.341 77.1305 87.6883 77.0953 89.0559C77.0761 89.7198 76.9615 90.3774 76.755 91.0086C81.7744 91.9368 86.5484 93.7512 90.8053 96.3485C90.926 95.0443 90.9848 93.731 90.9817 92.4134C90.9662 88.5345 90.4133 84.6501 89.3416 80.8909C88.2893 77.2566 86.7629 73.7809 84.8105 70.5731C82.9205 76.106 79.9184 81.1015 76.03 85.184Z" fill="#61B2E4"/>
<path id="Vector_3" d="M49.2039 91.3091C49.1296 92.6236 49.1174 93.9373 49.1673 95.2452C53.5526 92.8693 58.4142 91.3021 63.4751 90.6325C63.3076 89.9989 63.2308 89.3447 63.2471 88.6895C63.2847 87.3265 63.7238 86.0048 64.5092 84.89C60.8503 80.6064 58.1248 75.4597 56.5377 69.8366C56.5361 69.831 56.5344 69.8256 56.5327 69.8199C54.4105 72.9208 52.6996 76.3118 51.4541 79.8865C50.1838 83.5851 49.4252 87.4355 49.2039 91.3091Z" fill="#92D3F5"/>
<path id="Vector_4" d="M54.9208 57.1739C54.6663 67.4651 58.113 77.4282 64.51 84.8935C65.8433 82.9941 68.0389 81.8882 70.3585 81.9477C72.6879 82.0104 74.8295 83.2402 76.0573 85.2205C82.8432 78.0951 86.8116 68.3192 87.0976 58.0234C87.4371 44.8338 81.7047 32.3846 71.8596 24.9302C69.8441 26.3003 67.9571 27.8883 66.2265 29.6705C59.2759 36.8214 55.2036 46.729 54.9208 57.1739ZM64.7444 46.846C64.8403 43.2307 67.8489 40.3769 71.4641 40.4718C71.4649 40.4718 71.4657 40.4718 71.4665 40.4718C75.0818 40.5668 77.9349 43.5744 77.8388 47.1896C77.8388 47.1904 77.8388 47.1912 77.8388 47.1919C77.7412 50.807 74.7318 53.6595 71.1167 53.5634C67.5016 53.4684 64.6486 50.4611 64.7444 46.846Z" fill="#EA5A47"/>
<path id="Vector_5" d="M63.3809 83.4893C63.7568 83.9523 64.1424 84.4052 64.5381 84.8477C65.8759 82.9743 68.0569 81.8875 70.358 81.9478C72.6874 82.0105 74.829 83.2403 76.0568 85.2206C82.8414 78.0947 86.8086 68.319 87.0938 58.024C87.1588 55.0785 86.9208 52.1361 86.3844 49.2531C86.1989 51.7769 85.7882 54.2865 85.158 56.7464C82.0435 68.7165 73.9647 78.6376 63.3809 83.4893Z" fill="#D22F27"/>
<path id="Vector_6" d="M70.6256 95.4995C71.0849 94.2272 71.4826 92.9302 71.8214 91.6132C72.8195 87.7339 73.282 83.7117 73.1938 79.679L73.194 79.6735C73.0906 75.7691 72.4729 71.8998 71.3582 68.1842C71.3046 68.0045 71.2148 67.8378 71.0942 67.6944C66.9492 70.183 65.9285 92.2134 70.6256 95.4995Z" fill="#61B2E4"/>
</g>
<g id="line">
<path id="Vector_7" d="M76.9665 53.0036C73.6647 56.1344 68.433 55.9962 65.3031 52.6955C62.1732 49.3947 62.313 44.163 65.6147 41.0322C68.9165 37.9013 74.1482 38.0395 77.2781 41.3403C80.408 44.641 80.2682 49.8727 76.9665 53.0036ZM67.5067 43.0274C65.3057 45.1145 65.2119 48.6021 67.2989 50.803C69.3858 53.0038 72.8736 53.0955 75.0746 51.0084C77.2754 48.9214 77.3692 45.4336 75.2823 43.2328C73.1953 41.0319 69.7075 40.9404 67.5067 43.0274Z" fill="black"/>
<path id="Vector_8" d="M49.2039 91.3091C49.1296 92.6236 49.1174 93.9373 49.1673 95.2452C53.5526 92.8693 58.4142 91.3021 63.4751 90.6325C63.3076 89.9989 63.2308 89.3447 63.2471 88.6895C63.2847 87.3265 63.7238 86.0048 64.5092 84.89C60.8503 80.6064 58.1248 75.4597 56.5377 69.8366C56.5361 69.831 56.5344 69.8256 56.5327 69.8199C54.4105 72.9208 52.6996 76.3118 51.4541 79.8865C50.1838 83.5851 49.4252 87.4355 49.2039 91.3091Z" stroke="black" stroke-width="1.949" stroke-miterlimit="10" stroke-linecap="round" stroke-linejoin="round"/>
<path id="Vector_9" d="M76.03 85.184C76.7598 86.341 77.1305 87.6883 77.0953 89.0559C77.0761 89.7198 76.9615 90.3774 76.755 91.0086C81.7744 91.9368 86.5484 93.7512 90.8053 96.3485C90.926 95.0443 90.9848 93.731 90.9817 92.4134C90.9662 88.5345 90.4133 84.6501 89.3416 80.8909C88.2893 77.2566 86.7629 73.7809 84.8105 70.5731C82.9205 76.106 79.9184 81.1015 76.03 85.184Z" stroke="black" stroke-width="1.949" stroke-miterlimit="10" stroke-linecap="round" stroke-linejoin="round"/>
<path id="Vector_10" d="M73.5024 82.8072C74.6212 83.4428 75.3719 84.2728 76.0532 85.2204C82.8394 78.0943 86.8079 68.3173 87.0932 58.0209C87.4328 44.8337 81.7033 32.3868 71.8614 24.9314C61.6487 31.866 55.2764 43.9922 54.9202 57.1708C54.6651 67.463 58.1114 77.4269 64.5089 84.8928C65.2753 83.801 66.3321 82.9836 67.528 82.4868" stroke="black" stroke-width="1.949" stroke-miterlimit="10" stroke-linecap="round" stroke-linejoin="round"/>
<path id="Vector_11" d="M70.0421 68.577C68.7719 72.1133 67.973 75.8266 67.671 79.6C67.377 83.4984 67.6163 87.4144 68.3809 91.2171C68.6405 92.508 68.96 93.7826 69.3382 95.0358" stroke="black" stroke-width="1.949" stroke-miterlimit="10" stroke-linecap="round" stroke-linejoin="round"/>
</g>
</g>
<defs>
<clipPath id="clip0_1_23">
<rect width="100" height="100" fill="white" transform="translate(0 69.5416) rotate(-43.4782)"/>
</clipPath>
</defs>
</svg>
