<svg id="eFfgZn84hOV1" xmlns="http://www.w3.org/2000/svg" xmlns:xlink="http://www.w3.org/1999/xlink" viewBox="0 0 442 443" shape-rendering="geometricPrecision" text-rendering="geometricPrecision">
<style><![CDATA[
#eFfgZn84hOV2_to {animation: eFfgZn84hOV2_to__to 9900ms linear 1 normal forwards}@keyframes eFfgZn84hOV2_to__to { 0% {transform: translate(221.000001px,327.533119px)} 14.141414% {transform: translate(221.000001px,327.533119px)} 50.505051% {transform: translate(221.950242px,316.28px)} 51.515152% {transform: translate(221.950242px,306.28px)} 52.525253% {transform: translate(221.950242px,300.28px)} 53.535354% {transform: translate(221.950242px,294.28px)} 54.545455% {transform: translate(221.950242px,288.28px)} 55.555556% {transform: translate(221.950242px,280.28px)} 56.565657% {transform: translate(221.950242px,270.28px)} 57.575758% {transform: translate(221.950242px,260.28px)} 58.585859% {transform: translate(221.950242px,250.28px)} 59.59596% {transform: translate(221.950242px,240.28px)} 60.606061% {transform: translate(221.950242px,228.28px)} 61.616162% {transform: translate(221.950242px,206.28px)} 62.626263% {transform: translate(221.950242px,194.28px)} 63.636364% {transform: translate(221.950242px,182.28px)} 64.646465% {transform: translate(221.950242px,170.28px)} 65.656566% {transform: translate(221.950242px,158.28px)} 66.666667% {transform: translate(221.950242px,146.28px)} 67.676768% {transform: translate(221.950242px,134.28px)} 68.686869% {transform: translate(221.950242px,122.28px)} 100% {transform: translate(221.950242px,122.28px)}} #eFfgZn84hOV2 {animation: eFfgZn84hOV2_c_o 9900ms linear 1 normal forwards}@keyframes eFfgZn84hOV2_c_o { 0% {opacity: 1} 62.626263% {opacity: 1} 68.686869% {opacity: 0} 100% {opacity: 0}} #eFfgZn84hOV5_ts {animation: eFfgZn84hOV5_ts__ts 9900ms linear 1 normal forwards}@keyframes eFfgZn84hOV5_ts__ts { 0% {transform: translate(69.798103px,102.826897px) scale(1,1)} 1.010101% {transform: translate(69.798103px,102.826897px) scale(1.712146,1)} 2.020202% {transform: translate(69.798103px,102.826897px) scale(0.891245,1)} 3.030303% {transform: translate(69.798103px,102.826897px) scale(0.891245,1.117087)} 4.040404% {transform: translate(69.798103px,102.826897px) scale(0.891245,0.466601)} 5.050505% {transform: translate(69.798103px,102.826897px) scale(0.891245,1.117088)} 6.060606% {transform: translate(69.798103px,102.826897px) scale(1.712145,1.117088)} 7.070707% {transform: translate(69.798103px,102.826897px) scale(0.891246,1.117088)} 8.080808% {transform: translate(69.798103px,102.826897px) scale(0.891246,0.466602)} 9.090909% {transform: translate(69.798103px,102.826897px) scale(0.891246,1.117088)} 10.10101% {transform: translate(69.798103px,102.826897px) scale(1.712146,1.117088)} 11.111111% {transform: translate(69.798103px,102.826897px) scale(0.891246,1.117088)} 12.121212% {transform: translate(69.798103px,102.826897px) scale(0.891246,0.466602)} 13.131313% {transform: translate(69.798103px,102.826897px) scale(0.891246,1.117089)} 14.141414% {transform: translate(69.798103px,102.826897px) scale(1.712146,1.117089)} 15.151515% {transform: translate(69.798103px,102.826897px) scale(0.891246,0.466602)} 16.161616% {transform: translate(69.798103px,102.826897px) scale(1.712146,1.117089)} 17.171717% {transform: translate(69.798103px,102.826897px) scale(0.697916,1.117089)} 18.181818% {transform: translate(69.798103px,102.826897px) scale(0.891245,0.466601)} 19.191919% {transform: translate(69.798103px,102.826897px) scale(1.712146,1.117089)} 20.20202% {transform: translate(69.798103px,102.826897px) scale(0.891245,1.117089)} 21.212121% {transform: translate(69.798103px,102.826897px) scale(0.891245,0.466602)} 22.222222% {transform: translate(69.798103px,102.826897px) scale(1.712145,1.117087)} 23.232323% {transform: translate(69.798103px,102.826897px) scale(0.891245,1.117087)} 24.242424% {transform: translate(69.798103px,102.826897px) scale(0.891245,0.466602)} 25.252525% {transform: translate(69.798103px,102.826897px) scale(0.891245,1.117088)} 26.262626% {transform: translate(69.798103px,102.826897px) scale(0.891245,1.117088)} 27.272727% {transform: translate(69.798103px,102.826897px) scale(0.891245,0.466602)} 28.282828% {transform: translate(69.798103px,102.826897px) scale(0.891245,1.117087)} 29.292929% {transform: translate(69.798103px,102.826897px) scale(1.712146,1.117087)} 30.30303% {transform: translate(69.798103px,102.826897px) scale(0.891245,1.117087)} 31.313131% {transform: translate(69.798103px,102.826897px) scale(0.891245,0.4666)} 32.323232% {transform: translate(69.798103px,102.826897px) scale(0.891245,1.117088)} 33.333333% {transform: translate(69.798103px,102.826897px) scale(1.712146,1.117088)} 34.343434% {transform: translate(69.798103px,102.826897px) scale(0.891245,1.117088)} 35.353535% {transform: translate(69.798103px,102.826897px) scale(0.891245,0.4666)} 36.363636% {transform: translate(69.798103px,102.826897px) scale(0.891245,1.117088)} 37.373737% {transform: translate(69.798103px,102.826897px) scale(1.712146,1.117088)} 38.383838% {transform: translate(69.798103px,102.826897px) scale(0.891246,1.117088)} 39.393939% {transform: translate(69.798103px,102.826897px) scale(0.891246,0.466602)} 40.40404% {transform: translate(69.798103px,102.826897px) scale(0.891246,1.117088)} 41.414141% {transform: translate(69.798103px,102.826897px) scale(1.712146,1.117088)} 42.424242% {transform: translate(69.798103px,102.826897px) scale(0.891245,1.117088)} 43.434343% {transform: translate(69.798103px,102.826897px) scale(0.891245,0.466601)} 44.444444% {transform: translate(69.798103px,102.826897px) scale(0.891245,1.117088)} 45.454545% {transform: translate(69.798103px,102.826897px) scale(1.712146,1.117088)} 46.464646% {transform: translate(69.798103px,102.826897px) scale(0.846804,1.117088)} 47.474747% {transform: translate(69.798103px,102.826897px) scale(0.846804,0.466602)} 48.484848% {transform: translate(69.798103px,102.826897px) scale(0.846804,1.117088)} 49.494949% {transform: translate(69.798103px,102.826897px) scale(1.712146,1.117088)} 50.505051% {transform: translate(69.798103px,102.826897px) scale(0.891245,1.117088)} 100% {transform: translate(69.798103px,102.826897px) scale(0.891245,1.117088)}}
]]></style>
<g id="eFfgZn84hOV2_to" transform="translate(221.000001,327.533119)"><g id="eFfgZn84hOV2" transform="translate(-59.981811,-82.672569)" clip-path="url(#eFfgZn84hOV20)"><g transform="translate(-10.077709 10.207455)"><g><g id="eFfgZn84hOV5_ts" transform="translate(69.798103,102.826897) scale(1,1)"><g transform="translate(-69.798103,-102.826897)"><path d="M62.227,102.627c-.16,6.207,2.5367,12.065,7.1687,15.573c4.8067-3.263,7.8058-8.97,7.9738-15.173.16-6.2062-2.5367-12.0645-7.1687-15.5732-4.8066,3.2634-7.8058,8.9705-7.9738,15.1732Z" fill="#fcea2b"/><path d="M76.4756,96.6246c.0571,1.8276-.1393,3.6664-.5826,5.4554-1.3938,5.576-5.076,10.239-9.9508,12.6.9927,1.349,2.1552,2.534,3.4527,3.52c4.8066-3.263,7.8058-8.97,7.9738-15.173.0497-2.178-.2529-4.3455-.8931-6.4024Z" fill="#f1b31c"/><path d="M63.8798,95.2201c-1.0143,2.3174-1.5774,4.8409-1.6531,7.4069-.1599,6.206,2.5361,12.064,7.1675,15.573c4.8065-3.264,7.8055-8.971,7.9739-15.173.0622-2.568-.3646-5.1175-1.2533-7.486" fill="none" stroke="#000" stroke-width="1.949" stroke-linecap="round" stroke-linejoin="round" stroke-miterlimit="10"/></g></g><path d="M76.03,85.184c.7298,1.157,1.1005,2.5043,1.0653,3.8719-.0192.6639-.1338,1.3215-.3403,1.9527c5.0194.9282,9.7934,2.7426,14.0503,5.3399.1207-1.3042.1795-2.6175.1764-3.9351-.0155-3.8789-.5684-7.7633-1.6401-11.5225-1.0523-3.6343-2.5787-7.11-4.5311-10.3178-1.89,5.5329-4.8921,10.5284-8.7805,14.6109Z" fill="#61b2e4"/><path d="M49.2039,91.3091c-.0743,1.3145-.0865,2.6282-.0366,3.9361c4.3853-2.3759,9.2469-3.9431,14.3078-4.6127-.1675-.6336-.2443-1.2878-.228-1.943.0376-1.363.4767-2.6847,1.2621-3.7995-3.6589-4.2836-6.3844-9.4303-7.9715-15.0534-.0016-.0056-.0033-.011-.005-.0167-2.1222,3.1009-3.8331,6.4919-5.0786,10.0666-1.2703,3.6986-2.0289,7.549-2.2502,11.4226Z" fill="#92d3f5"/><path d="M54.9208,57.1739C54.6663,67.4651,58.113,77.4282,64.51,84.8935c1.3333-1.8994,3.5289-3.0053,5.8485-2.9458c2.3294.0627,4.471,1.2925,5.6988,3.2728c6.7859-7.1254,10.7543-16.9013,11.0403-27.1971.3395-13.1896-5.3929-25.6388-15.238-33.0932-2.0155,1.3701-3.9025,2.9581-5.6331,4.7403-6.9506,7.1509-11.0229,17.0585-11.3057,27.5034ZM64.7444,46.846c.0959-3.6153,3.1045-6.4691,6.7197-6.3742.0008,0,.0016,0,.0024,0c3.6153.095,6.4684,3.1026,6.3723,6.7178c0,.0008,0,.0016,0,.0023-.0976,3.6151-3.107,6.4676-6.7221,6.3715-3.6151-.095-6.4681-3.1023-6.3723-6.7174Z" fill="#ea5a47"/><path d="M63.3809,83.4893c.3759.463.7615.9159,1.1572,1.3584c1.3378-1.8734,3.5188-2.9602,5.8199-2.8999c2.3294.0627,4.471,1.2925,5.6988,3.2728c6.7846-7.1259,10.7518-16.9016,11.037-27.1966.065-2.9455-.173-5.8879-.7094-8.7709-.1855,2.5238-.5962,5.0334-1.2264,7.4933-3.1145,11.9701-11.1933,21.8912-21.7771,26.7429Z" fill="#d22f27"/><path d="M70.6256,95.4995c.4593-1.2723.857-2.5693,1.1958-3.8863.9981-3.8793,1.4606-7.9015,1.3724-11.9342l.0002-.0055c-.1034-3.9044-.7211-7.7737-1.8358-11.4893-.0536-.1797-.1434-.3464-.264-.4898-4.145,2.4886-5.1657,24.519-.4686,27.8051Z" fill="#61b2e4"/></g><g><path d="M76.9665,53.0036c-3.3018,3.1308-8.5335,2.9926-11.6634-.3081-3.1299-3.3008-2.9901-8.5325.3116-11.6633c3.3018-3.1309,8.5335-2.9927,11.6634.3081c3.1299,3.3007,2.9901,8.5324-.3116,11.6633Zm-9.4598-9.9762c-2.201,2.0871-2.2948,5.5747-.2078,7.7756c2.0869,2.2008,5.5747,2.2925,7.7757.2054c2.2008-2.087,2.2946-5.5748.2077-7.7756-2.087-2.2009-5.5748-2.2924-7.7756-.2054Z"/><path d="M49.2039,91.3091c-.0743,1.3145-.0865,2.6282-.0366,3.9361c4.3853-2.3759,9.2469-3.9431,14.3078-4.6127-.1675-.6336-.2443-1.2878-.228-1.943.0376-1.363.4767-2.6847,1.2621-3.7995-3.6589-4.2836-6.3844-9.4303-7.9715-15.0534-.0016-.0056-.0033-.011-.005-.0167-2.1222,3.1009-3.8331,6.4919-5.0786,10.0666-1.2703,3.6986-2.0289,7.549-2.2502,11.4226Z" fill="none" stroke="#000" stroke-width="1.949" stroke-linecap="round" stroke-linejoin="round" stroke-miterlimit="10"/><path d="M76.03,85.184c.7298,1.157,1.1005,2.5043,1.0653,3.8719-.0192.6639-.1338,1.3215-.3403,1.9527c5.0194.9282,9.7934,2.7426,14.0503,5.3399.1207-1.3042.1795-2.6175.1764-3.9351-.0155-3.8789-.5684-7.7633-1.6401-11.5225-1.0523-3.6343-2.5787-7.11-4.5311-10.3178-1.89,5.5329-4.8921,10.5284-8.7805,14.6109Z" fill="none" stroke="#000" stroke-width="1.949" stroke-linecap="round" stroke-linejoin="round" stroke-miterlimit="10"/><path d="M73.5024,82.8072c1.1188.6356,1.8695,1.4656,2.5508,2.4132c6.7862-7.1261,10.7547-16.9031,11.04-27.1995.3396-13.1872-5.3899-25.6341-15.2318-33.0895-10.2127,6.9346-16.585,19.0608-16.9412,32.2394-.2551,10.2922,3.1912,20.2561,9.5887,27.722.7664-1.0918,1.8232-1.9092,3.0191-2.406" fill="none" stroke="#000" stroke-width="1.949" stroke-linecap="round" stroke-linejoin="round" stroke-miterlimit="10"/><path d="M70.0421,68.577C68.7719,72.1133,67.973,75.8266,67.671,79.6c-.294,3.8984-.0547,7.8144.7099,11.6171.2596,1.2909.5791,2.5655.9573,3.8187" fill="none" stroke="#000" stroke-width="1.949" stroke-linecap="round" stroke-linejoin="round" stroke-miterlimit="10"/></g></g><clipPath id="eFfgZn84hOV20"><rect width="100" height="100" rx="0" ry="0" transform="matrix(.725636-.688079 0.688079 0.725636 0 69.5416)" fill="#fff"/></clipPath></g></g></svg>
