<svg width="1330" height="770" viewBox="0 0 1330 770" fill="none" xmlns="http://www.w3.org/2000/svg">
<g id="Desktop - 1" filter="url(#filter0_d_1_2)">
<rect width="1440" height="1024" transform="translate(-55 -108)" fill="white"/>
<path id="right-plant" d="M987.462 736.985V664.645C987.462 664.645 1015.65 715.931 987.462 736.985Z" fill="#EA974A"/>
<g id="plant">
<path id="left-plant" d="M987.29 733.921L934 685C934 685 990.845 698.916 987.29 733.921Z" fill="#3CEC38"/>
</g>
<path id="left-ankle" d="M864.258 723.281L851.998 723.28L846.166 675.992L864.26 675.993L864.258 723.281Z" fill="#9F616A"/>
<path id="left-shoe" d="M867.384 735.165L827.854 735.163V734.663C827.854 730.583 829.475 726.669 832.361 723.784C835.246 720.899 839.16 719.277 843.24 719.277L867.385 719.278L867.384 735.165Z" fill="#FF6B00"/>
<path id="right-ankle" d="M771.121 722.877L759.277 719.71L765.857 672.52L783.337 677.194L771.121 722.877Z" fill="#9F616A"/>
<path id="right-shoe" d="M771.072 735.165L732.883 724.953L733.012 724.47C734.066 720.528 736.643 717.166 740.176 715.124C743.709 713.082 747.908 712.526 751.851 713.58L775.176 719.817L771.072 735.165Z" fill="#F6E01D"/>
<path id="legs" d="M871.311 458.269L881.58 470.199L868.299 712.642H839.931L825.628 526.091L781.282 717.645L751.79 710.412L778.606 467.113L871.311 458.269Z" fill="#2F2E41"/>
<path id="chest-stomach" d="M785.462 301.744L813.708 287.577L857.145 288.34L894.524 307.468L873.257 413.681L882.444 469.061C846.936 478.116 809.761 478.422 774.109 469.952L773.825 469.885C773.825 469.885 794.938 394.968 785.95 372.106L785.462 301.744Z" fill="#E82929"/>
<path id="face" d="M867.177 245.136C867.146 236.659 863.752 228.54 857.742 222.563C851.731 216.585 843.593 213.236 835.116 213.252C826.639 213.268 818.514 216.646 812.525 222.646C806.536 228.646 803.173 236.777 803.173 245.254C803.173 253.732 806.536 261.863 812.525 267.863C818.514 273.863 826.639 277.241 835.116 277.257C843.593 277.272 851.731 273.924 857.742 267.946C863.752 261.969 867.146 253.85 867.177 245.373C867.178 245.294 867.178 245.215 867.177 245.136Z" fill="#FEB8B8"/>
<path id="hair" d="M820.845 226.85C822.502 225.29 824.685 224.409 826.962 224.382C830.381 224.271 835.504 225.485 837.684 228.265C839.436 230.499 839.52 233.572 839.527 236.411L839.545 244.247C839.551 246.565 839.579 248.983 840.632 251.048C841.685 253.113 844.103 254.682 846.312 253.978C848.932 253.142 850.084 249.66 852.762 249.034C854.773 248.564 856.838 250.033 857.717 251.902C858.46 253.839 858.706 255.931 858.433 257.988C858.18 262.091 852.295 263.719 851.462 267.744C850.98 270.073 849.293 274.718 851.462 273.744C861.462 272.744 865.851 266.903 870.428 261.405L880.751 249.004C881.93 247.773 882.835 246.307 883.409 244.701C883.665 243.577 883.757 242.422 883.682 241.271C883.626 238.189 883.542 235.107 883.431 232.026C883.334 229.335 882.657 225.939 880.021 225.386C878.65 225.098 876.835 225.6 876.111 224.401C875.839 223.8 875.795 223.121 875.986 222.49C876.568 219.414 877.55 216.196 876.538 213.233C875.011 208.765 869.753 206.932 865.107 206.089C860.461 205.246 855.245 204.521 852.329 200.807C851.549 199.574 850.702 198.384 849.793 197.242C848.455 196.026 846.812 195.197 845.038 194.844C839.271 193.384 833.179 193.925 827.758 196.377C825.511 197.403 823.253 198.784 820.788 198.628C818.227 198.465 816.04 196.663 813.511 196.225C809.428 195.516 805.524 198.576 803.511 202.199C801.018 206.689 800.789 212.837 804.312 216.574C806.069 218.438 808.691 219.719 809.421 222.175C809.718 223.175 809.649 224.252 809.912 225.261C810.218 226.265 810.802 227.163 811.596 227.85C812.39 228.537 813.362 228.986 814.4 229.144C816.897 229.551 819.01 228.407 820.845 226.85Z" fill="#2F2E41"/>
<path id="left-wrist" d="M781.563 379.185C782.171 380.746 783.114 382.155 784.326 383.313C785.537 384.471 786.988 385.349 788.575 385.885C790.162 386.422 791.848 386.604 793.514 386.418C795.179 386.233 796.783 385.684 798.214 384.812L855.567 415.13L857.424 401.158L801.695 368.296C800.069 365.99 797.655 364.36 794.908 363.715C792.162 363.071 789.274 363.456 786.793 364.798C784.311 366.141 782.408 368.346 781.444 370.998C780.481 373.649 780.523 376.562 781.563 379.185Z" fill="#FEB8B8"/>
<path id="right-wrist" d="M857.992 381.6C857.058 382.991 855.829 384.16 854.394 385.024C852.958 385.889 851.351 386.428 849.685 386.605C848.018 386.781 846.334 386.589 844.749 386.044C843.165 385.499 841.719 384.612 840.514 383.448L777.917 400.483L778.462 382.744L840.731 366.571C842.822 364.676 845.535 363.614 848.356 363.586C851.177 363.558 853.91 364.566 856.038 366.419C858.165 368.271 859.539 370.84 859.9 373.638C860.26 376.436 859.581 379.269 857.992 381.6Z" fill="#FEB8B8"/>
<path id="left-arm" d="M882.319 308.232L894.524 307.468C894.524 307.468 908.814 326.323 900.888 346.783C900.888 346.783 902.261 420.282 870.612 417.263C838.962 414.244 828.962 414.244 828.962 414.244L838.462 387.744L859.715 381.182C859.715 381.182 853.165 352.288 865.563 340.266L882.319 308.232Z" fill="#E82929"/>
<path id="right-arm" d="M794.187 307.587L792.462 298.744C792.462 298.744 767.022 298.146 761.992 336.695C761.992 336.695 739.115 394.388 761.539 401.816C783.962 409.244 808.627 401.816 808.627 401.816L806.769 376.374L782.097 371.339C782.097 371.339 794.842 354.849 787.902 340.547L794.187 307.587Z" fill="#E82929"/>
<path id="land" d="M1282.87 735H89.1332C88.3022 735 87.5053 734.895 86.9177 734.707C86.3301 734.52 86 734.265 86 734C86 733.735 86.3301 733.48 86.9177 733.293C87.5053 733.105 88.3022 733 89.1332 733H1282.87C1283.7 733 1284.49 733.105 1285.08 733.293C1285.67 733.48 1286 733.735 1286 734C1286 734.265 1285.67 734.52 1285.08 734.707C1284.49 734.895 1283.7 735 1282.87 735Z" fill="#CBCBCB"/>
<g id="download">
<path id="cloud" d="M415.182 202.8C425.921 202.8 434.659 212.228 434.659 223.81C434.659 224.612 434.59 225.521 434.448 226.666L433.274 236.07C433.028 238.029 434.334 239.905 436.283 239.923L445.688 239.982C451.149 240.017 455.6 244.908 455.6 250.885C455.6 256.903 451.126 261.8 445.625 261.8H376.752C369.941 261.8 364.4 255.77 364.4 248.36C364.4 242.973 367.359 238.123 371.942 235.999L375.652 234.282C376.963 233.675 378.548 231.739 378.593 229.71L378.685 225.497C378.753 222.341 381.084 219.774 383.872 219.774C384.054 219.774 384.407 219.81 385.052 219.981L390.974 221.538C392.484 221.934 394.428 221.149 395.135 219.715L398.002 213.927C401.411 207.066 407.994 202.8 415.182 202.8ZM415.182 191C403.32 191 393.032 198.121 387.862 208.547C386.561 208.187 385.223 207.996 383.877 207.98C374.831 207.98 367.501 215.674 367.29 225.232C363.007 227.25 359.379 230.507 356.844 234.61C354.308 238.714 352.973 243.489 353 248.36C353 262.302 363.631 273.6 376.752 273.6H445.625C457.43 273.6 467 263.428 467 250.885C467 238.389 457.499 228.259 445.751 228.182C445.928 226.748 446.053 225.297 446.053 223.81C446.059 205.691 432.236 191 415.182 191Z" fill="#4AA9D1"/>
<path id="down-arrow" d="M434.536 329.085L413.536 350.715C413.079 351.175 412.533 351.538 411.931 351.78C411.33 352.023 410.685 352.14 410.036 352.125H409.966C409.316 352.139 408.67 352.022 408.067 351.779C407.464 351.537 406.916 351.175 406.456 350.715L385.466 329.085C385.397 329.005 385.317 328.935 385.246 328.865C384.409 327.966 383.961 326.772 384.003 325.544C384.044 324.317 384.57 323.155 385.466 322.315C386.425 321.414 387.691 320.912 389.006 320.912C390.322 320.912 391.588 321.414 392.547 322.315L404.986 335.315V301.795C405.044 300.504 405.598 299.285 406.532 298.392C407.466 297.498 408.709 297 410.001 297C411.294 297 412.536 297.498 413.471 298.392C414.405 299.285 414.958 300.504 415.016 301.795V335.315L427.446 322.315C428.407 321.414 429.674 320.912 430.991 320.912C432.308 320.912 433.576 321.414 434.536 322.315C434.607 322.385 434.676 322.455 434.756 322.535C435.592 323.435 436.038 324.628 435.996 325.855C435.955 327.082 435.43 328.243 434.536 329.085Z" fill="#2F2E41"/>
</g>
<g id="Group 1">
<path id="crow2" d="M1135.96 175.429C1135.67 174.315 1135.47 173.411 1135.02 172.374C1134.59 171.384 1134.24 170.343 1133.72 169.405C1133.32 168.703 1133.05 167.905 1132.72 167.15C1132.54 166.744 1132.38 166.325 1131.98 166.153C1131.63 166.002 1131.28 165.85 1130.93 165.697C1130.76 165.606 1130.59 165.53 1130.41 165.471C1130.28 165.413 1130.15 165.356 1130.02 165.299C1129.32 164.992 1128.65 164.62 1128.04 164.107C1127.64 163.781 1127.28 163.413 1126.9 163.066C1126.74 162.918 1126.67 162.752 1126.74 162.497C1126.79 162.318 1126.78 162.113 1126.79 161.92C1126.82 161.693 1126.83 161.462 1126.87 161.241C1126.89 161.15 1126.98 161.056 1127.05 161.011C1127.23 160.901 1127.43 160.828 1127.62 160.723C1127.92 160.55 1128.05 160.569 1128.31 160.833C1128.37 160.889 1128.47 160.962 1128.52 160.937C1128.71 160.837 1128.75 160.617 1128.75 160.387C1128.75 160.377 1128.75 160.367 1128.75 160.357C1128.76 160.242 1128.73 160.123 1128.66 160.037L1128.54 159.895C1128.49 159.831 1128.42 159.794 1128.35 159.784C1128.29 159.759 1128.24 159.735 1128.18 159.729C1128.14 159.725 1128.1 159.719 1128.07 159.713L1128.01 159.684C1127.97 159.666 1127.93 159.661 1127.89 159.666C1127.88 159.663 1127.87 159.66 1127.86 159.657C1127.84 159.642 1127.81 159.63 1127.79 159.622C1127.65 159.55 1127.54 159.432 1127.46 159.234C1127.41 159.116 1127.32 158.994 1127.22 158.946C1126.69 158.693 1126.16 158.681 1125.67 159.038C1125.41 159.223 1125.19 159.479 1124.97 159.717C1124.55 160.154 1124.12 160.239 1123.75 159.902C1123.44 159.622 1123.11 159.345 1122.86 158.995C1122.46 158.433 1122.07 157.845 1121.76 157.207C1121.26 156.17 1120.84 155.083 1120.38 154.019C1120.32 153.897 1120.26 153.757 1120.17 153.685C1119.73 153.333 1119.3 152.962 1118.83 152.672C1118.17 152.258 1117.45 151.956 1116.8 151.519C1116.08 151.035 1115.29 150.789 1114.52 150.49C1114.03 150.302 1113.52 150.211 1113.04 149.994C1112.4 149.705 1111.8 149.335 1111.18 149H1111C1111.03 149.069 1111.05 149.14 1111.09 149.205C1111.18 149.374 1111.27 149.537 1111.36 149.709C1111.42 149.827 1111.46 149.959 1111.52 150.079C1111.55 150.148 1111.61 150.199 1111.65 150.267C1111.85 150.66 1112.04 151.071 1112.39 151.323C1112.43 151.35 1112.44 151.423 1112.48 151.463C1112.68 151.712 1112.89 151.956 1113.09 152.205C1113.18 152.307 1113.24 152.443 1113.34 152.517C1113.58 152.703 1113.84 152.867 1114.1 153.029C1114.18 153.086 1114.37 153.095 1114.37 153.151C1114.41 153.451 1114.66 153.419 1114.78 153.471C1115.16 153.637 1115.48 153.964 1115.92 154.001C1116.21 154.026 1116.49 154.198 1116.77 154.318C1116.86 154.358 1116.94 154.438 1117.03 154.509C1117.24 154.699 1117.45 154.93 1117.68 155.076C1117.87 155.19 1117.94 155.358 1118.01 155.559C1118.07 155.733 1118.13 155.907 1118.19 156.08C1118.22 156.15 1118.25 156.218 1118.27 156.288C1118.31 156.412 1118.34 156.546 1118.4 156.659C1118.47 156.792 1118.57 156.897 1118.63 157.034C1118.79 157.394 1118.91 157.77 1119.07 158.13C1119.09 158.175 1119.11 158.22 1119.13 158.265C1119.19 158.507 1119.29 158.726 1119.43 158.907C1119.47 158.978 1119.5 159.05 1119.54 159.121C1119.63 159.333 1119.68 159.612 1119.82 159.757C1120.09 160.03 1120.06 160.523 1120.4 160.738C1120.51 160.803 1120.51 161.072 1120.58 161.238C1120.61 161.312 1120.69 161.362 1120.74 161.423C1120.76 161.505 1120.8 161.573 1120.83 161.645C1120.91 161.801 1120.99 161.954 1121.05 162.118C1121.1 162.248 1121.11 162.399 1121.16 162.529C1121.22 162.681 1121.17 163.236 1121.09 163.379C1120.89 163.771 1120.66 164.154 1120.5 164.576C1120.09 165.695 1119.57 166.678 1118.57 167.157C1118.51 167.183 1118.45 167.304 1118.46 167.369C1118.49 167.619 1118.55 167.863 1118.6 168.112C1118.36 168.278 1118.14 168.439 1117.92 168.598C1118.16 169.204 1118.16 169.204 1118.41 169.056C1118.53 169.204 1118.64 169.338 1118.77 169.5C1118.93 169.386 1119.13 169.297 1119.27 169.143C1119.29 169.122 1119.31 169.103 1119.33 169.085C1119.43 169.033 1119.52 168.975 1119.62 168.911C1119.76 168.859 1119.91 168.842 1120.06 168.83C1120.29 168.814 1120.49 168.751 1120.58 168.453C1120.72 168.035 1120.96 167.714 1121.33 167.567C1121.73 167.408 1122.12 167.24 1122.53 167.119C1123.02 166.971 1123.49 166.774 1123.87 166.368C1124.06 166.166 1124.26 166.204 1124.45 166.272C1125.07 166.501 1125.67 166.771 1126.29 167.013C1126.63 167.149 1126.98 167.25 1127.33 167.383C1127.75 167.546 1128.17 167.729 1128.59 167.897C1128.71 167.946 1128.84 167.96 1128.96 168.012C1129.14 168.089 1129.31 168.222 1129.49 168.266C1129.94 168.376 1130.38 168.543 1130.79 168.799C1130.95 168.901 1131.1 169.088 1131.19 169.278C1131.41 169.711 1131.6 170.169 1131.8 170.62C1131.99 171.062 1132.17 171.511 1132.36 171.95C1132.42 172.076 1132.51 172.179 1132.6 172.286C1132.68 172.39 1132.77 172.483 1132.85 172.584C1132.98 172.731 1133.1 172.883 1133.22 173.029C1133.26 173.077 1133.34 173.101 1133.36 173.156C1133.47 173.428 1133.6 173.641 1133.86 173.737C1133.96 173.775 1134.04 173.921 1134.12 174.024C1134.19 174.12 1134.25 174.239 1134.33 174.322C1134.63 174.619 1134.94 174.905 1135.24 175.186C1135.24 175.198 1135.24 175.152 1135.25 175.085C1135.38 175.399 1135.36 175.05 1135.42 175.036C1135.48 175.35 1135.61 175.594 1135.86 175.705C1136.04 175.754 1135.99 175.599 1136 175.492C1135.98 175.472 1135.97 175.452 1135.96 175.429Z" fill="black"/>
<path id="crow1" d="M1059.96 148.429C1059.67 147.315 1059.47 146.411 1059.02 145.374C1058.59 144.384 1058.24 143.343 1057.72 142.405C1057.32 141.703 1057.05 140.905 1056.72 140.15C1056.54 139.744 1056.38 139.325 1055.98 139.153C1055.63 139.002 1055.28 138.85 1054.93 138.697C1054.76 138.606 1054.59 138.53 1054.41 138.471C1054.28 138.413 1054.15 138.356 1054.02 138.299C1053.32 137.992 1052.65 137.62 1052.04 137.107C1051.64 136.781 1051.28 136.413 1050.9 136.066C1050.74 135.918 1050.67 135.752 1050.74 135.497C1050.79 135.318 1050.78 135.113 1050.79 134.92C1050.82 134.693 1050.83 134.462 1050.87 134.241C1050.89 134.15 1050.98 134.056 1051.05 134.011C1051.23 133.901 1051.43 133.828 1051.62 133.723C1051.92 133.55 1052.05 133.569 1052.31 133.833C1052.37 133.889 1052.47 133.962 1052.52 133.937C1052.71 133.837 1052.75 133.617 1052.75 133.387C1052.75 133.377 1052.75 133.367 1052.75 133.357C1052.76 133.242 1052.73 133.123 1052.66 133.037L1052.54 132.895C1052.49 132.831 1052.42 132.794 1052.35 132.784C1052.29 132.759 1052.24 132.735 1052.18 132.729C1052.14 132.725 1052.1 132.719 1052.07 132.713L1052.01 132.684C1051.97 132.666 1051.93 132.661 1051.89 132.666C1051.88 132.663 1051.87 132.66 1051.86 132.657C1051.84 132.642 1051.81 132.63 1051.79 132.622C1051.65 132.55 1051.54 132.432 1051.46 132.234C1051.41 132.116 1051.32 131.994 1051.22 131.946C1050.69 131.693 1050.16 131.681 1049.67 132.038C1049.41 132.223 1049.19 132.479 1048.97 132.717C1048.55 133.154 1048.12 133.239 1047.75 132.902C1047.44 132.622 1047.11 132.345 1046.86 131.995C1046.46 131.433 1046.07 130.845 1045.76 130.207C1045.26 129.17 1044.84 128.083 1044.38 127.019C1044.32 126.897 1044.26 126.757 1044.17 126.685C1043.73 126.333 1043.3 125.962 1042.83 125.672C1042.17 125.258 1041.45 124.956 1040.8 124.519C1040.08 124.035 1039.29 123.789 1038.52 123.49C1038.03 123.302 1037.52 123.211 1037.04 122.994C1036.4 122.705 1035.8 122.335 1035.18 122H1035C1035.03 122.069 1035.05 122.14 1035.09 122.205C1035.18 122.374 1035.27 122.537 1035.36 122.709C1035.42 122.827 1035.46 122.959 1035.52 123.079C1035.55 123.148 1035.61 123.199 1035.65 123.267C1035.85 123.66 1036.04 124.071 1036.39 124.323C1036.43 124.35 1036.44 124.423 1036.48 124.463C1036.68 124.712 1036.89 124.956 1037.09 125.205C1037.18 125.307 1037.24 125.443 1037.34 125.517C1037.58 125.703 1037.84 125.867 1038.1 126.029C1038.18 126.086 1038.37 126.095 1038.37 126.151C1038.41 126.451 1038.66 126.419 1038.78 126.471C1039.16 126.637 1039.48 126.964 1039.92 127.001C1040.21 127.026 1040.49 127.198 1040.77 127.318C1040.86 127.358 1040.94 127.438 1041.03 127.509C1041.24 127.699 1041.45 127.93 1041.68 128.076C1041.87 128.19 1041.94 128.358 1042.01 128.559C1042.07 128.733 1042.13 128.907 1042.19 129.08C1042.22 129.15 1042.25 129.218 1042.27 129.288C1042.31 129.412 1042.34 129.546 1042.4 129.659C1042.47 129.792 1042.57 129.897 1042.63 130.034C1042.79 130.394 1042.91 130.77 1043.07 131.13C1043.09 131.175 1043.11 131.22 1043.13 131.265C1043.19 131.507 1043.29 131.726 1043.43 131.907C1043.47 131.978 1043.5 132.05 1043.54 132.121C1043.63 132.333 1043.68 132.612 1043.82 132.757C1044.09 133.03 1044.06 133.523 1044.4 133.738C1044.51 133.803 1044.51 134.072 1044.58 134.238C1044.61 134.312 1044.69 134.362 1044.74 134.423C1044.76 134.505 1044.8 134.573 1044.83 134.645C1044.91 134.801 1044.99 134.954 1045.05 135.118C1045.1 135.248 1045.11 135.399 1045.16 135.529C1045.22 135.681 1045.17 136.236 1045.09 136.379C1044.89 136.771 1044.66 137.154 1044.5 137.576C1044.09 138.695 1043.57 139.678 1042.57 140.157C1042.51 140.183 1042.45 140.304 1042.46 140.369C1042.49 140.619 1042.55 140.863 1042.6 141.112C1042.36 141.278 1042.14 141.439 1041.92 141.598C1042.16 142.204 1042.16 142.204 1042.41 142.056C1042.53 142.204 1042.64 142.338 1042.77 142.5C1042.93 142.386 1043.13 142.297 1043.27 142.143C1043.29 142.122 1043.31 142.103 1043.33 142.085C1043.43 142.033 1043.52 141.975 1043.62 141.911C1043.76 141.859 1043.91 141.842 1044.06 141.83C1044.29 141.814 1044.49 141.751 1044.58 141.453C1044.72 141.035 1044.96 140.714 1045.33 140.567C1045.73 140.408 1046.12 140.24 1046.53 140.119C1047.02 139.971 1047.49 139.774 1047.87 139.368C1048.06 139.166 1048.26 139.204 1048.45 139.272C1049.07 139.501 1049.67 139.771 1050.29 140.013C1050.63 140.149 1050.98 140.25 1051.33 140.383C1051.75 140.546 1052.17 140.729 1052.59 140.897C1052.71 140.946 1052.84 140.96 1052.96 141.012C1053.14 141.089 1053.31 141.222 1053.49 141.266C1053.94 141.376 1054.38 141.543 1054.79 141.799C1054.95 141.901 1055.1 142.088 1055.19 142.278C1055.41 142.711 1055.6 143.169 1055.8 143.62C1055.99 144.062 1056.17 144.511 1056.36 144.95C1056.42 145.076 1056.51 145.179 1056.6 145.286C1056.68 145.39 1056.77 145.483 1056.85 145.584C1056.98 145.731 1057.1 145.883 1057.22 146.029C1057.26 146.077 1057.34 146.101 1057.36 146.156C1057.47 146.428 1057.6 146.641 1057.86 146.737C1057.96 146.775 1058.04 146.921 1058.12 147.024C1058.19 147.12 1058.25 147.239 1058.33 147.322C1058.63 147.619 1058.94 147.905 1059.24 148.186C1059.24 148.198 1059.24 148.152 1059.25 148.085C1059.38 148.399 1059.36 148.05 1059.42 148.036C1059.48 148.35 1059.61 148.594 1059.86 148.705C1060.04 148.754 1059.99 148.599 1060 148.492C1059.98 148.472 1059.97 148.452 1059.96 148.429Z" fill="black"/>
</g>
</g>
<defs>
<filter id="filter0_d_1_2" x="-59" y="-108" width="1448" height="1032" filterUnits="userSpaceOnUse" color-interpolation-filters="sRGB">
<feFlood flood-opacity="0" result="BackgroundImageFix"/>
<feColorMatrix in="SourceAlpha" type="matrix" values="0 0 0 0 0 0 0 0 0 0 0 0 0 0 0 0 0 0 127 0" result="hardAlpha"/>
<feOffset dy="4"/>
<feGaussianBlur stdDeviation="2"/>
<feComposite in2="hardAlpha" operator="out"/>
<feColorMatrix type="matrix" values="0 0 0 0 0 0 0 0 0 0 0 0 0 0 0 0 0 0 0.25 0"/>
<feBlend mode="normal" in2="BackgroundImageFix" result="effect1_dropShadow_1_2"/>
<feBlend mode="normal" in="SourceGraphic" in2="effect1_dropShadow_1_2" result="shape"/>
</filter>
</defs>
</svg>
