<svg width="1440" height="1024" viewBox="0 0 1440 1024" fill="none" xmlns="http://www.w3.org/2000/svg">
<rect width="1440" height="1024" fill="white"/>
<g id="coding">
<rect width="1440" height="1024" fill="white"/>
<g id="head">
<path id="face" d="M725.666 447.332C764.694 447.332 796.332 415.694 796.332 376.666C796.332 337.638 764.694 306 725.666 306C686.638 306 655 337.638 655 376.666C655 415.694 686.638 447.332 725.666 447.332Z" fill="#FEB8B8"/>
<g id="hair" style="mix-blend-mode:darken">
<path d="M792.077 314.246C781.512 297.09 764.974 284.448 745.647 278.754L736.972 285.085V276.865C732.33 276.154 727.632 275.881 722.94 276.047L715.455 282.82V276.61C704.373 277.987 693.697 281.645 684.099 287.354C674.502 293.063 666.191 300.698 659.692 309.779C643.438 333.211 640.694 365.811 656.681 389.431C661.069 375.944 666.396 363.289 670.785 349.803C674.234 350.273 677.73 350.29 681.184 349.853L686.523 337.395L688.015 349.326C704.564 347.885 729.111 344.719 744.8 341.818L743.274 332.665L752.402 340.271C757.208 339.165 760.062 338.161 759.826 337.394C771.495 356.205 785.775 368.219 797.442 387.03C801.874 360.506 806.974 338.451 792.077 314.246Z" fill="#2F2E41"/>
</g>
<path id="head-rest" d="M804.576 376.648H801.314C801.314 331.918 767.658 295.527 726.288 295.527C684.919 295.527 651.262 331.918 651.262 376.648H648C648 329.973 683.12 292 726.288 292C769.456 292 804.576 329.973 804.576 376.648Z" fill="#FFEF63"/>
<path id="right-mufs" d="M661.325 404.545C649.976 404.908 640.458 395.255 640.065 382.984L639.71 371.875C639.318 359.604 648.2 349.363 659.549 349L661.325 404.545L661.325 404.545Z" fill="#FF6363"/>
<path id="left-mufs" d="M789 349C800.355 349 809.559 358.952 809.559 371.229V382.344C809.559 394.621 800.355 404.574 789 404.574V349Z" fill="#FF6363"/>
</g>
<path id="body" d="M868.157 560.471C865.727 545.852 863.221 530.952 856.426 517.782C851.961 509.156 844.872 500.936 835.317 499.23C833.434 499.062 831.585 498.634 829.82 497.958C827.02 496.609 789.395 475.13 783.415 471.389C778.28 468.178 770.174 462.231 766.087 462.231C761.976 462.141 746.21 465.81 684.674 461C684.674 461 667.769 467.663 654.688 475.743C654.49 475.612 590.819 509.803 588.427 509.713C583.897 509.522 579.686 512.423 577.089 516.075C574.493 519.728 573.275 524.249 572 528.621C585.907 559.591 598.631 590.601 612.539 621.571C613.19 622.737 613.536 624.049 613.545 625.385C613.265 626.772 612.673 628.076 611.814 629.2C604.994 640.156 605.211 653.936 605.956 666.813C606.702 679.69 607.624 693.291 601.869 704.833C600.304 708.002 598.268 710.902 596.78 714.071C593.293 721.248 592.033 744.202 594.07 751.913L849.19 759.221C843.705 744.143 868.157 560.471 868.157 560.471Z" fill="#FFEF63"/>
<g id="plant">
<path id="right-leaf" d="M437.238 687.293C427.861 709.749 404.376 721.321 404.376 721.321C404.376 721.321 396.095 696.484 405.472 674.028C414.849 651.572 438.334 640 438.334 640C438.334 640 446.615 664.837 437.238 687.293Z" fill="#56B660"/>
<path id="left-leaf" d="M432.04 681.629C412.53 696.174 407 721.764 407 721.764C407 721.764 433.104 723.773 452.615 709.229C472.125 694.684 477.655 669.094 477.655 669.094C477.655 669.094 451.551 667.085 432.04 681.629Z" fill="#28D343"/>
</g>
<g id="Glass-water">
<path id="cup" d="M1022.72 646.67V654.468C1022.71 655.088 1022.47 655.681 1022.03 656.119C1021.59 656.557 1021 656.804 1020.38 656.808H1016.48C1016.37 656.807 1016.27 656.827 1016.18 656.866C1016.08 656.905 1016 656.963 1015.93 657.035C1015.85 657.108 1015.8 657.194 1015.76 657.289C1015.72 657.383 1015.7 657.485 1015.7 657.587V721.53C1015.69 722.15 1015.45 722.743 1015.01 723.181C1014.57 723.619 1013.98 723.866 1013.36 723.87H965.791C965.171 723.869 964.576 723.623 964.137 723.184C963.699 722.745 963.452 722.151 963.452 721.53V657.587C963.451 657.381 963.369 657.183 963.223 657.037C963.076 656.891 962.878 656.808 962.672 656.808H957.993C957.373 656.807 956.778 656.56 956.34 656.122C955.901 655.683 955.654 655.088 955.654 654.468V646.67C955.653 646.363 955.714 646.059 955.831 645.775C955.948 645.491 956.121 645.232 956.338 645.015C956.555 644.798 956.813 644.626 957.097 644.508C957.381 644.391 957.686 644.33 957.993 644.331H1020.38C1021 644.333 1021.59 644.58 1022.03 645.018C1022.47 645.456 1022.71 646.05 1022.72 646.67Z" fill="#CACACA"/>
<path id="let-steam" d="M991.521 629.513C990.523 621.18 990.26 612.776 990.735 604.397L991.521 590.523C987.19 601.183 988.169 615.213 991.521 629.513Z" fill="#CACACA"/>
<path id="right-steam" d="M984.502 625.614C982.429 611.65 981.882 597.501 982.869 583.419L984.502 560.112C975.502 578.02 977.536 601.59 984.502 625.614V625.614Z" fill="#CACACA"/>
<path id="water" d="M1015.7 692.869C998.215 700.104 980.542 700.183 962.672 692.869V676.388C979.875 670.61 998.495 670.61 1015.7 676.388V692.869Z" fill="#AAAAAA"/>
<path id="glass-edge" d="M1016 684H964V721H1016V684Z" fill="#6F4E37"/>
</g>
<g id="right-hand">
<path id="right-sleve" d="M577.942 521.023C576.703 522.321 575.742 523.858 575.118 525.541C564.833 548.72 558.758 573.546 557.177 598.856C557.205 600.09 556.921 601.312 556.35 602.406C555.788 603.135 555.162 603.812 554.48 604.429C553.885 605.134 553.435 605.95 553.155 606.829C552.876 607.708 552.772 608.633 552.85 609.552C552.928 610.472 553.186 611.366 553.61 612.186C554.034 613.005 554.615 613.733 555.32 614.328C555.435 614.425 555.554 614.519 555.676 614.609C557.775 610.658 562.801 609.367 567.268 609.023C588.657 607.331 609.55 617.282 631.002 616.531C629.489 611.301 627.312 606.275 626.077 600.983C620.619 577.481 634.234 551.894 625.887 529.257C624.219 524.727 621.433 520.274 617.044 518.289C615.226 517.556 613.324 517.052 611.382 516.79C605.961 515.811 595.17 511.624 589.929 513.304C587.995 513.928 587.232 515.747 585.628 516.846C583.192 518.402 579.961 518.974 577.942 521.023Z" fill="#FFEF63"/>
<path id="right-arm" d="M556.424 622.322C555.915 626.004 555.864 629.735 556.272 633.43L559.928 685.943C560.272 690.892 560.609 695.83 561.074 700.767C561.951 710.348 563.262 719.853 564.889 729.344C564.925 730.692 565.495 731.97 566.473 732.898C567.451 733.826 568.757 734.328 570.105 734.294C586.201 737.7 602.831 737.563 619.258 736.636C644.325 735.236 708.456 732.59 712.374 727.5C716.292 722.41 714.009 714.177 708.9 710.062C703.791 705.946 619.161 695.913 619.161 695.913C619.988 689.36 622.483 683.188 624.849 676.967C629.1 665.932 633.07 654.534 633.146 642.713C633.222 630.892 628.769 618.464 619.085 611.691C611.12 606.132 600.864 605.1 591.157 605.329C584.095 605.532 571.892 603.84 565.442 606.602C560.337 608.85 557.378 617.323 556.424 622.322Z" fill="#FBBEBE"/>
</g>
<g id="left-hand">
<path id="left-sleve" d="M855.002 516.846C853.399 515.747 852.636 513.928 850.701 513.304C845.46 511.624 834.669 515.811 829.248 516.79C827.306 517.052 825.404 517.556 823.587 518.289C819.197 520.274 816.411 524.727 814.744 529.257C806.397 551.894 820.012 577.481 814.553 600.983C813.319 606.275 811.142 611.301 809.628 616.531C831.081 617.282 851.974 607.331 873.362 609.023C877.829 609.366 882.855 610.658 884.954 614.609C885.076 614.519 885.195 614.425 885.311 614.328C886.016 613.733 886.597 613.005 887.021 612.186C887.444 611.366 887.703 610.472 887.781 609.552C887.859 608.633 887.755 607.708 887.475 606.829C887.195 605.95 886.745 605.134 886.151 604.429C885.468 603.812 884.842 603.135 884.28 602.406C883.71 601.312 883.425 600.09 883.453 598.856C881.873 573.546 875.798 548.72 865.513 525.54C864.889 523.858 863.928 522.321 862.688 521.023C860.669 518.974 857.438 518.402 855.002 516.846Z" fill="#FFEF63"/>
<path id="left-arm" d="M875.912 605.602C869.462 602.84 857.259 604.532 850.197 604.329C840.49 604.1 830.234 605.132 822.269 610.691C812.585 617.464 808.132 629.892 808.208 641.713C808.284 653.534 812.254 664.932 816.505 675.966C818.871 682.188 821.365 688.36 822.192 694.913C822.192 694.913 737.562 704.946 732.454 709.062C727.345 713.177 725.062 721.41 728.98 726.5C732.898 731.59 855.153 736.7 871.249 733.294C872.597 733.328 873.903 732.826 874.881 731.898C875.859 730.97 876.429 729.692 876.465 728.344C878.092 718.853 879.402 709.348 880.28 699.767C880.744 694.83 881.082 689.892 881.426 684.943L885.082 632.43C885.49 628.735 885.439 625.004 884.929 621.322C883.976 616.323 881.017 607.85 875.912 605.602Z" fill="#FBBEBE"/>
</g>
<g id="Computer">
<path id="table" d="M1159.63 720.724H281V747.724H332.97V754H1107.68V747.724H1159.63V720.724Z" fill="#E9A76B"/>
<path id="Display" d="M861.887 752.788H599.857C596.797 752.785 593.865 751.568 591.701 749.405C589.538 747.242 588.321 744.309 588.317 741.25V582.283C588.321 579.224 589.538 576.291 591.701 574.128C593.865 571.964 596.797 570.748 599.857 570.744H861.887C864.947 570.748 867.88 571.964 870.043 574.128C872.206 576.291 873.423 579.224 873.427 582.283V741.25C873.423 744.309 872.206 747.242 870.043 749.405C867.88 751.568 864.947 752.785 861.887 752.788Z" fill="#3F3D56"/>
<path id="Ellipse 263" d="M731.236 669.401C735.453 669.401 738.871 665.983 738.871 661.766C738.871 657.55 735.453 654.132 731.236 654.132C727.02 654.132 723.602 657.55 723.602 661.766C723.602 665.983 727.02 669.401 731.236 669.401Z" fill="white"/>
</g>
</g>
</svg>
